<svg xmlns="http://www.w3.org/2000/svg" width="1000" height="985" viewBox="0 0 23.92 23.58" shape-rendering="geometricPrecision" text-rendering="geometricPrecision" image-rendering="optimizeQuality" fill-rule="evenodd" clip-rule="evenodd">
  <defs>
    <radialGradient id="a" gradientUnits="userSpaceOnUse" gradientTransform="matrix(2.30206 0 0 1.95506 -6 -2)" cx="4.26" cy="1.7" r="7.71" fx="4.26" fy="1.7">
      <stop offset="0" stop-color="#fdd41e"/>
      <stop offset="1" stop-color="#e85e3b"/>
    </radialGradient>
  </defs>
  <path d="M11.96 0c4.26 0 7.71 3.45 7.71 7.71 0 4.25-3.45 7.7-7.71 7.7-4.25 0-7.7-3.45-7.7-7.7C4.26 3.45 7.71 0 11.96 0z" fill="url(#a)"/>
  <path d="M0 19.05v-2.09h.49v.77h.81v-.77h.49v2.09H1.3v-.87H.49v.87H0zm2.56-.77l.56-.02v-.02c0-.06-.03-.12-.07-.16-.05-.05-.11-.07-.19-.07s-.15.02-.2.07c-.05.05-.09.12-.1.2zm.86.31l-.05.4c-.09.04-.18.07-.27.09-.08.02-.17.03-.25.03-.22 0-.4-.06-.53-.19-.13-.12-.2-.28-.2-.48 0-.21.08-.39.22-.53.15-.14.32-.21.53-.21.18 0 .32.05.44.15.11.11.17.24.17.41 0 .03 0 .07-.01.13l-.04.06-.88.03c0 .08.04.16.1.21.07.05.15.08.25.08.08 0 .15-.01.24-.04.09-.04.18-.08.28-.14zm.76.46h-.46V17l.46-.07v2.12zm.34.63v-1.93h.45c.05-.01.09-.03.14-.03.04-.01.09-.02.13-.02.19 0 .34.07.46.2.13.13.19.29.19.5 0 .21-.07.38-.2.51-.13.14-.3.2-.51.2h-.09c-.03-.01-.07-.01-.12-.02v.51l-.45.08zm.45-.93c.03.01.06.02.08.02.03.01.05.01.07.01.09 0 .16-.04.22-.11s.08-.16.08-.27c0-.11-.02-.19-.08-.26-.05-.07-.11-.1-.19-.1-.03 0-.05 0-.08.01-.03 0-.06.01-.1.02v.68zm1.13-.15v-.4h.76v.4H6.1zm1.53-.21h.55l-.27-.66-.28.66zm-.78.66l1.06-2.15h.03l1.05 2.15h-.53l-.13-.3h-.85l-.13.3h-.5zm2.3-.43v-.52h-.19v-.35h.19v-.39l.46-.06v.45h.31v.35h-.31v.55c0 .11.02.2.05.25.03.05.09.1.18.15l-.51.03c-.07-.03-.11-.08-.14-.14-.02-.06-.04-.17-.04-.32zm.92-.02v-.4h.76v.4h-.76zm1.13.45v-2.09h.49v.77h.8v-.77h.49v2.09h-.49v-.87h-.8v.87h-.49zm2.58-.65c0 .11.02.2.07.27s.11.1.18.1c.08 0 .14-.03.18-.1.05-.07.07-.16.07-.27 0-.11-.02-.19-.07-.26-.04-.07-.1-.11-.18-.11-.07 0-.13.04-.18.11-.05.06-.07.15-.07.26zm-.46 0c0-.2.06-.37.2-.51.13-.13.3-.2.51-.2.21 0 .38.07.51.2.14.14.21.31.21.51 0 .21-.07.38-.21.51-.13.14-.3.2-.51.2-.2 0-.37-.06-.51-.2-.13-.13-.2-.3-.2-.51zm3 .65h-.45v-.74c0-.07-.02-.12-.05-.15-.03-.04-.07-.06-.12-.06-.07 0-.13.03-.17.08-.04.06-.06.13-.06.23v.64h-.45v-1.3h.42v.22c.07-.09.14-.15.22-.19.07-.04.15-.06.24-.06s.17.02.23.06c.06.04.12.1.16.19.06-.09.13-.15.21-.19.07-.04.16-.06.24-.06.15 0 .25.04.32.12.07.08.11.21.11.38v.83h-.46v-.74c0-.07-.01-.12-.04-.15-.03-.04-.07-.06-.12-.06-.07 0-.13.03-.17.08-.04.06-.06.13-.06.23v.64zm1.53-.77l.56-.02v-.02c0-.06-.02-.12-.07-.16-.05-.05-.11-.07-.18-.07-.08 0-.15.02-.21.07-.05.05-.09.12-.1.2zm.86.31l-.05.4c-.09.04-.18.07-.26.09-.09.02-.17.03-.26.03-.22 0-.39-.06-.53-.19-.13-.12-.19-.28-.19-.48 0-.21.07-.39.21-.53.15-.14.32-.21.53-.21.18 0 .33.05.44.15.11.11.17.24.17.41 0 .03 0 .07-.01.13l-.04.06-.88.03c0 .08.04.16.11.21.06.05.15.08.25.08.07 0 .15-.01.23-.04.09-.04.18-.08.28-.14zm.33.25c0-.07.02-.12.07-.17.04-.05.1-.07.17-.07s.12.02.17.07c.05.05.07.1.07.17s-.02.13-.07.18c-.05.04-.1.07-.17.07s-.12-.03-.17-.08c-.05-.05-.07-.1-.07-.17zm1.22-.44c0 .11.02.2.07.27s.11.1.18.1c.07 0 .13-.03.18-.1.05-.07.07-.16.07-.27 0-.11-.02-.19-.07-.26s-.11-.11-.18-.11c-.07 0-.13.04-.18.11-.05.06-.07.15-.07.26zm-.46 0c0-.2.06-.37.2-.51.13-.13.3-.2.51-.2.21 0 .38.07.51.2.14.14.21.31.21.51 0 .21-.07.38-.21.51-.13.14-.3.2-.51.2-.21 0-.38-.06-.51-.2-.14-.13-.2-.3-.2-.51zm2.15.65h-.46v-1.3h.42l.01.23c.05-.09.12-.16.18-.2.07-.04.16-.06.26-.06h.04v.49h-.1c-.14 0-.23.01-.28.04-.05.04-.07.11-.07.24v.56zm1.52-.97c-.02-.01-.05-.02-.07-.03-.03-.01-.05-.01-.08-.01-.08 0-.15.04-.21.11s-.09.16-.09.27c0 .1.03.18.08.25s.11.1.19.1c.02 0 .05 0 .09-.02.03-.02.06-.04.09-.07v-.6zm.45-.33v1.18c0 .12 0 .21-.01.27-.01.06-.03.11-.06.16-.05.11-.13.19-.23.24-.11.05-.23.08-.38.08-.08 0-.17-.01-.26-.03-.09-.02-.19-.05-.29-.09v-.36c.09.05.18.09.26.12.08.02.15.03.22.03.1 0 .18-.02.24-.07.05-.05.08-.12.08-.2v-.09c-.05.03-.1.06-.15.07-.06.02-.11.02-.17.02-.18 0-.33-.06-.44-.18-.11-.12-.17-.28-.17-.49 0-.2.06-.38.19-.51.13-.14.29-.21.49-.21.04 0 .09.01.14.02.05.01.1.03.16.06l.38-.02z" fill="#ec7336" fill-rule="nonzero"/>
  <path d="M7.18 19.88c2.12 1 5.93.72 8.2.28 1.77-.34-1.57.46-1.81.49-2.58.36-7.81.93-1.61.93 10.44 0-2.04.35 1.49.91 1.03.17 2.48.23 3.29.79" fill="none" stroke="#ec7336" stroke-width=".73" stroke-miterlimit="22.9256"/>
  <path d="M10.84 6.6c.06-.03.12-.06.19-.08.3-.08.6-.03.84.15.48-.36 1.21-.19 1.46.4.09.21 0 .44-.21.53-.01 0-.02.01-.03.01.18.1.26.33.16.52-.23.48-.71.87-1.18 1.1-.01 0-.03.01-.04.01.12.04.23.1.31.19l.67-.77c.22-.26.56-.34.88-.23.25.09.44.29.51.55.02.01.05.02.07.03.24.14.39.39.41.66.02.32-.16.6-.43.77-.03.02-.07.04-.1.06-.08.05-.16.09-.24.14-.24.13-.48.27-.72.4-.34.2-.69.4-1.03.6-.06.03-.12.07-.18.09-.19.09-.42.01-.52-.18-.07.19-.28.29-.48.23l-.72-.2c-.13-.04-.29-.04-.42.01.08.22.02.47-.16.63l-1.09.93v.01c-.22.19-.56.16-.76-.06L6.6 11.46c-.2-.23-.18-.58.05-.78l1.09-.94c.19-.17.46-.18.67-.05.21-.16.43-.31.65-.44.12-.06.24-.13.36-.17.32-.12.71-.15 1.04-.18h.01c.05-.01.09-.01.14-.01.16 0 .31.04.47.08.09.02.17.05.25.07-.55-.35-1.01-.91-1.01-1.58 0-.18.05-.34.13-.48-.29.15-.66.13-.92-.1-.12-.1-.21-.24-.25-.4-.16-.06-.28-.17-.37-.32l-.01-.01c-.24-.42-.06-.88.32-1.13.03-.02.07-.04.11-.06.07-.05.15-.09.23-.14.24-.13.48-.27.72-.41.34-.19.69-.39 1.03-.59.32-.2.71-.26 1.07-.17.05.01.1.02.14.04.1.02.19.05.28.07.14.04.27.08.41.12.13.04.29.04.42-.02-.03-.07-.04-.15-.03-.23.01-.15.08-.29.19-.39l1.09-.93c.22-.2.56-.19.77.02 0 .01.01.02.02.03l1.36 1.58c.22.26.19.66-.07.89l-1.03.89c-.19.17-.46.18-.67.05-.21.16-.43.31-.65.44-.12.06-.24.12-.36.17-.32.12-.71.15-1.04.18-.03 0-.06.01-.09.01-.18 0-.35-.03-.51-.08-.31-.08-.62-.17-.93-.26-.14-.04-.26-.1-.35-.2l-.49.57zm-1.89 3.68l.59.68c.33-.22.75-.26 1.14-.15l.72.2c.11.04.2.11.25.21.04-.09.11-.17.21-.22.02-.01.05-.02.07-.04.01 0 .01 0 .02-.01l2.07-1.18c.01-.02.04-.04.05-.06-.03.01-.07.03-.09.04-.08.04-.18.08-.27.11-.18.08-.36.15-.54.22-.23.1-.46.2-.7.29-.14.26-.41.39-.71.35-.33-.05-.67-.09-1-.14-.22-.03-.37-.23-.34-.45.02-.22.23-.37.44-.34.12.01.23.03.35.05-.14-.04-.28-.08-.41-.12-.07-.01-.14-.03-.21-.03h-.04c-.19.02-.39.04-.58.07-.1.02-.19.04-.29.07-.07.03-.15.07-.22.12-.17.1-.34.21-.51.33zm3.82-2.7c-.07-.04-.14-.11-.17-.19-.02-.05-.07-.09-.12-.1-.09-.02-.15.02-.19.09-.09.14-.25.23-.41.23-.17.01-.35-.09-.43-.24-.09-.15-.33-.09-.33.09 0 .42.39.77.75.97.26-.15.54-.38.67-.65.04-.1.13-.17.23-.2zm-.32-1.96c.12.04.23.07.35.1.09.02.21.05.3.05h.02c.2-.02.39-.04.58-.07.1-.02.2-.04.29-.07.07-.03.15-.08.22-.12.17-.1.35-.21.51-.33-.2-.23-.39-.45-.59-.68-.33.22-.75.26-1.14.15l-.8-.23c-.15-.03-.32-.01-.45.08-.01 0-.01 0-.02.01h-.01L9.65 5.69l-.05.05h.02c.08-.03.18-.08.27-.11.39-.16.78-.32 1.17-.49l.14-.05c.14-.26.41-.39.71-.35.34.05.67.09 1 .14.22.03.38.23.35.45-.03.21-.23.37-.45.34-.12-.02-.24-.03-.36-.05zm3.86-1.29l-1.09-1.27-.73.63c.03.04.07.08.1.11.15.18.3.35.45.53.15.18.3.35.46.53.03.03.06.07.09.1.11-.1.22-.19.33-.29.13-.11.26-.22.39-.34zM8.08 10.5l-.72.62 1.11 1.26c.12-.1.23-.2.35-.31.12-.1.23-.2.35-.3h.01c-.37-.43-.73-.85-1.1-1.27z" fill="#d16614"/>
  <path d="M16.84 4.1l-1.36-1.58c0-.01 0-.01-.01-.01-.11-.12-.31-.13-.43-.02l-1.09.94c-.06.05-.1.13-.11.22 0 .08.02.16.08.23l.04.05-.07.06c-.19.16-.46.2-.75.12l-.81-.23c-.15-.03-.53-.08-.89.15-.01 0-2.08 1.19-2.08 1.19-.19.13-.46.43-.25.81h.01c.09.15.22.24.37.26.01.16.08.3.2.41.23.2.59.17.79-.06l.77-.89c.03-.03.06-.07.08-.12l.03-.01c.04.16.15.31.39.38.96.27 1.16.35 1.43.32.75-.08.93-.11 1.3-.32.28-.16.54-.34.8-.55l.04.05c.12.14.32.15.45.04l1.03-.9c.16-.13.18-.38.04-.54zm-6.59 2.34c-.16.18-.45.06-.45-.18l.92-.38-.47.56zm4.08-.71c-.32.18-.43.2-1.18.28-.2.02-.36-.04-1.32-.31-.12-.04-.15-.1-.17-.15-.02-.06 0-.12 0-.12v-.01s.01-.04.03-.08c.03-.03.06-.06.15-.05.29.04.99.14 1 .14.08.01.16-.05.17-.14.02-.08-.04-.16-.13-.17-.01 0-.71-.1-1-.14-.28-.03-.44.14-.5.3l-.23.09c-1.79.74-1.39.58-1.52.62-.25.03-.42-.29-.11-.5L11.6 4.3s0-.01.01-.01c.26-.17.53-.13.64-.1l.81.22c.38.11.77.04 1.03-.19l.07-.06c.12.14.81.93.91 1.05-.24.2-.48.37-.74.52zm2.27-1.32s-1.03.89-1.04.89c0 0-1.42-1.63-1.41-1.64l1.09-.93c0-.01 0-.01.01-.01v.01l1.36 1.58c.02.03.02.07-.01.1zm-2.42 4.76c-.02-.51-.65-.74-.99-.35l-.77.89c-.03.03-.06.07-.08.12l-.03.01c-.04-.16-.15-.31-.38-.38-1.03-.29-1.16-.34-1.44-.32-.75.08-.92.11-1.3.32-.28.16-.54.34-.79.55l-.05-.05c-.12-.14-.32-.15-.45-.04l-1.09.94c-.13.12-.14.31-.03.44l1.44 1.64c.1.12.29.13.41.03h.01l1.08-.94c.13-.11.15-.31.03-.45l-.04-.05.07-.06c.19-.16.47-.21.75-.13l.72.21c.08.02.17-.03.19-.11.03-.08-.02-.17-.1-.19l-.73-.21c-.38-.1-.77-.03-1.03.2l-.07.06-.91-1.05c.24-.2.49-.37.74-.52.32-.18.43-.2 1.18-.28.18-.02.29.02.89.19.46.13.56.13.6.27.02.06 0 .12 0 .12 0 .04-.02.07-.03.09-.03.03-.06.06-.14.05-.3-.04-1-.14-1.01-.14-.08-.01-.16.05-.17.14-.01.08.05.16.13.17.01 0 .71.09 1 .14.25.03.43-.1.5-.3.01 0 1.57-.64 1.58-.65.16-.08.32-.1.42.06.11.2-.09.35-.14.38l-2.08 1.19s0 .01-.01.01c-.03.02-.07.04-.1.06-.08.03-.12.12-.08.2.03.08.12.11.2.08.05-.02.1-.05.15-.08.01 0 2.08-1.19 2.09-1.19.56-.37.29-1.01-.14-1.07zm-4.66 2.62c0 .01-1.07.93-1.08.93L7.02 11.1l1.08-.94h.01c.15.17 1.26 1.45 1.41 1.63zm3.43-2.21l.48-.56c.15-.17.45-.06.44.18l-.92.38zm-1.29-2.33c.03.05.11.12.21.12.09 0 .17-.05.21-.12.2-.32.62-.25.74.04.04.08.13.12.21.08.08-.03.11-.12.08-.2-.21-.5-.89-.61-1.24-.16-.43-.55-1.3-.24-1.3.45 0 .72.62 1.27 1.21 1.55.06.02.12.02.18-.01.42-.19.87-.55 1.08-.98.03-.07 0-.17-.08-.2-.07-.04-.17-.01-.21.07-.16.35-.54.64-.88.81-.49-.24-.99-.68-.99-1.24 0-.43.56-.58.78-.21z" fill="#fff"/>
</svg>