<?xml version="1.0" encoding="UTF-8"?>
<!DOCTYPE svg PUBLIC "-//W3C//DTD SVG 1.1//EN" "http://www.w3.org/Graphics/SVG/1.1/DTD/svg11.dtd">
<!-- Creator: CorelDRAW Home & Student 2019 -->
<svg xmlns="http://www.w3.org/2000/svg" xml:space="preserve" width="500px" height="500px" version="1.1" style="shape-rendering:geometricPrecision; text-rendering:geometricPrecision; image-rendering:optimizeQuality; fill-rule:evenodd; clip-rule:evenodd"
viewBox="0 0 23.92 23.58"
 xmlns:xlink="http://www.w3.org/1999/xlink">
 <defs>
  <style type="text/css">
   <![CDATA[
    .str0 {stroke:#EC7336;stroke-width:0.73;stroke-miterlimit:22.9256}
    .fil2 {fill:none}
    .fil3 {fill:#D16614}
    .fil4 {fill:white}
    .fil1 {fill:#EC7336;fill-rule:nonzero}
    .fil0 {fill:#ec7336}
   ]]>
  </style>
 </defs>
 <g id="Ebene_x0020_1">
  <path class="fil0" d="M11.96 0c4.26,0 7.71,3.45 7.71,7.71 0,4.25 -3.45,7.7 -7.71,7.7 -4.25,0 -7.7,-3.45 -7.7,-7.7 0,-4.26 3.45,-7.71 7.7,-7.71z"/>
  <path class="fil4" d="M16.84 4.1l-1.36 -1.58c0,-0.01 0,-0.01 -0.01,-0.01 -0.11,-0.12 -0.31,-0.13 -0.43,-0.02l-1.09 0.94c-0.06,0.05 -0.1,0.13 -0.11,0.22 0,0.08 0.02,0.16 0.08,0.23l0.04 0.05 -0.07 0.06c-0.19,0.16 -0.46,0.2 -0.75,0.12 0,0 -0.81,-0.23 -0.81,-0.23 -0.15,-0.03 -0.53,-0.08 -0.89,0.15 -0.01,0 -2.08,1.19 -2.08,1.19 -0.19,0.13 -0.46,0.43 -0.25,0.81 0.01,0 0.01,0 0.01,0 0.09,0.15 0.22,0.24 0.37,0.26 0.01,0.16 0.08,0.3 0.2,0.41 0.23,0.2 0.59,0.17 0.79,-0.06l0.77 -0.89c0.03,-0.03 0.06,-0.07 0.08,-0.12l0.03 -0.01c0.04,0.16 0.15,0.31 0.39,0.38 0.96,0.27 1.16,0.35 1.43,0.32 0.75,-0.08 0.93,-0.11 1.3,-0.32 0.28,-0.16 0.54,-0.34 0.8,-0.55l0.04 0.05c0.12,0.14 0.32,0.15 0.45,0.04l1.03 -0.9c0.16,-0.13 0.18,-0.38 0.04,-0.54zm-6.59 2.34c-0.16,0.18 -0.45,0.06 -0.45,-0.18 0,0 0.92,-0.38 0.92,-0.38l-0.47 0.56zm4.08 -0.71c-0.32,0.18 -0.43,0.2 -1.18,0.28 -0.2,0.02 -0.36,-0.04 -1.32,-0.31 -0.12,-0.04 -0.15,-0.1 -0.17,-0.15 -0.02,-0.06 0,-0.12 0,-0.12 0,0 0,0 0,-0.01 0,0 0,0 0,0 0,0 0.01,-0.04 0.03,-0.08 0.03,-0.03 0.06,-0.06 0.15,-0.05 0.29,0.04 0.99,0.14 1,0.14 0.08,0.01 0.16,-0.05 0.17,-0.14 0.02,-0.08 -0.04,-0.16 -0.13,-0.17 -0.01,0 -0.71,-0.1 -1,-0.14 -0.28,-0.03 -0.44,0.14 -0.5,0.3l-0.23 0.09c-1.79,0.74 -1.39,0.58 -1.52,0.62 -0.25,0.03 -0.42,-0.29 -0.11,-0.5l2.08 -1.19c0,0 0,0 0,0 0,0 0,-0.01 0.01,-0.01 0.26,-0.17 0.53,-0.13 0.64,-0.1l0.81 0.22c0.38,0.11 0.77,0.04 1.03,-0.19l0.07 -0.06c0.12,0.14 0.81,0.93 0.91,1.05 -0.24,0.2 -0.48,0.37 -0.74,0.52zm2.27 -1.32c0,0 -1.03,0.89 -1.04,0.89 0,0 -1.42,-1.63 -1.41,-1.64l1.09 -0.93 0 0c0,-0.01 0,-0.01 0.01,-0.01 0,0 0,0 0,0.01l1.36 1.58c0.02,0.03 0.02,0.07 -0.01,0.1zm-2.42 4.76c-0.02,-0.51 -0.65,-0.74 -0.99,-0.35l-0.77 0.89c-0.03,0.03 -0.06,0.07 -0.08,0.12l-0.03 0.01c-0.04,-0.16 -0.15,-0.31 -0.38,-0.38 -1.03,-0.29 -1.16,-0.34 -1.44,-0.32 0,0 0,0 0,0 -0.75,0.08 -0.92,0.11 -1.3,0.32 -0.28,0.16 -0.54,0.34 -0.79,0.55l-0.05 -0.05c-0.12,-0.14 -0.32,-0.15 -0.45,-0.04l-1.09 0.94c-0.13,0.12 -0.14,0.31 -0.03,0.44l1.44 1.64c0.1,0.12 0.29,0.13 0.41,0.03 0,0 0,0 0.01,0l1.08 -0.94c0.13,-0.11 0.15,-0.31 0.03,-0.45l-0.04 -0.05 0.07 -0.06c0.19,-0.16 0.47,-0.21 0.75,-0.13l0.72 0.21c0.08,0.02 0.17,-0.03 0.19,-0.11 0.03,-0.08 -0.02,-0.17 -0.1,-0.19l-0.73 -0.21c-0.38,-0.1 -0.77,-0.03 -1.03,0.2l-0.07 0.06 -0.91 -1.05c0.24,-0.2 0.49,-0.37 0.74,-0.52 0.32,-0.18 0.43,-0.2 1.18,-0.28 0.18,-0.02 0.29,0.02 0.89,0.19 0.46,0.13 0.56,0.13 0.6,0.27 0.02,0.06 0,0.12 0,0.12 0,0.04 -0.02,0.07 -0.03,0.09 -0.03,0.03 -0.06,0.06 -0.14,0.05 -0.3,-0.04 -1,-0.14 -1.01,-0.14 -0.08,-0.01 -0.16,0.05 -0.17,0.14 -0.01,0.08 0.05,0.16 0.13,0.17 0.01,0 0.71,0.09 1,0.14 0.25,0.03 0.43,-0.1 0.5,-0.3 0.01,0 1.57,-0.64 1.58,-0.65 0.16,-0.08 0.32,-0.1 0.42,0.06 0.11,0.2 -0.09,0.35 -0.14,0.38l-2.08 1.19c0,0 0,0 0,0 0,0 0,0.01 -0.01,0.01 -0.03,0.02 -0.07,0.04 -0.1,0.06 -0.08,0.03 -0.12,0.12 -0.08,0.2 0.03,0.08 0.12,0.11 0.2,0.08 0.05,-0.02 0.1,-0.05 0.15,-0.08 0.01,0 2.08,-1.19 2.09,-1.19 0.56,-0.37 0.29,-1.01 -0.14,-1.07zm-4.66 2.62c0,0 0,0 0,0 0,0.01 -1.07,0.93 -1.08,0.93l-1.42 -1.62 1.08 -0.94c0,0 0.01,0 0.01,0 0,0 0,0 0,0 0.15,0.17 1.26,1.45 1.41,1.63zm3.43 -2.21l0.48 -0.56c0.15,-0.17 0.45,-0.06 0.44,0.18 0,0 -0.92,0.38 -0.92,0.38zm-1.29 -2.33c0.03,0.05 0.11,0.12 0.21,0.12 0.09,0 0.17,-0.05 0.21,-0.12 0.2,-0.32 0.62,-0.25 0.74,0.04 0.04,0.08 0.13,0.12 0.21,0.08 0.08,-0.03 0.11,-0.12 0.08,-0.2 -0.21,-0.5 -0.89,-0.61 -1.24,-0.16 -0.43,-0.55 -1.3,-0.24 -1.3,0.45 0,0.72 0.62,1.27 1.21,1.55 0.06,0.02 0.12,0.02 0.18,-0.01 0.42,-0.19 0.87,-0.55 1.08,-0.98 0.03,-0.07 0,-0.17 -0.08,-0.2 -0.07,-0.04 -0.17,-0.01 -0.21,0.07 -0.16,0.35 -0.54,0.64 -0.88,0.81 -0.49,-0.24 -0.99,-0.68 -0.99,-1.24 0,-0.43 0.56,-0.58 0.78,-0.21z"/>
 </g>
</svg>
