<?xml version="1.0" encoding="UTF-8"?>
<!DOCTYPE svg PUBLIC "-//W3C//DTD SVG 1.1//EN" "http://www.w3.org/Graphics/SVG/1.1/DTD/svg11.dtd">
<!-- Creator: CorelDRAW Home & Student 2019 -->
<svg xmlns="http://www.w3.org/2000/svg" xml:space="preserve" width="1000px" height="985px" version="1.1" style="shape-rendering:geometricPrecision; text-rendering:geometricPrecision; image-rendering:optimizeQuality; fill-rule:evenodd; clip-rule:evenodd"
viewBox="0 0 23.92 23.58"
 xmlns:xlink="http://www.w3.org/1999/xlink">
 <defs>
  <style type="text/css">
   <![CDATA[
    .str0 {stroke:#EC7336;stroke-width:0.73;stroke-miterlimit:22.9256}
    .fil2 {fill:none}
    .fil3 {fill:#D16614}
    .fil4 {fill:white}
    .fil1 {fill:#EC7336;fill-rule:nonzero}
    .fil0 {fill:url(#id0)}
   ]]>
  </style>
  <radialGradient id="id0" gradientUnits="userSpaceOnUse" gradientTransform="matrix(2.30206 -0 -0 1.95506 -6 -2)" cx="4.26" cy="1.7" r="7.71" fx="4.26" fy="1.7">
   <stop offset="0" style="stop-opacity:1; stop-color:#FDD41E"/>
   <stop offset="1" style="stop-opacity:1; stop-color:#E85E3B"/>
  </radialGradient>
 </defs>
 <g id="Ebene_x0020_1">
  <metadata id="CorelCorpID_0Corel-Layer"/>
  <path class="fil0" d="M11.96 0c4.26,0 7.71,3.45 7.71,7.71 0,4.25 -3.45,7.7 -7.71,7.7 -4.25,0 -7.7,-3.45 -7.7,-7.7 0,-4.26 3.45,-7.71 7.7,-7.71z"/>
  <path class="fil1" d="M0 19.05l0 -2.09 0.49 0 0 0.77 0.81 0 0 -0.77 0.49 0 0 2.09 -0.49 0 0 -0.87 -0.81 0 0 0.87 -0.49 0zm2.56 -0.77l0.56 -0.02 0 -0.02c0,-0.06 -0.03,-0.12 -0.07,-0.16 -0.05,-0.05 -0.11,-0.07 -0.19,-0.07 -0.08,0 -0.15,0.02 -0.2,0.07 -0.05,0.05 -0.09,0.12 -0.1,0.2zm0.86 0.31l-0.05 0.4c-0.09,0.04 -0.18,0.07 -0.27,0.09 -0.08,0.02 -0.17,0.03 -0.25,0.03 -0.22,0 -0.4,-0.06 -0.53,-0.19 -0.13,-0.12 -0.2,-0.28 -0.2,-0.48 0,-0.21 0.08,-0.39 0.22,-0.53 0.15,-0.14 0.32,-0.21 0.53,-0.21 0.18,0 0.32,0.05 0.44,0.15 0.11,0.11 0.17,0.24 0.17,0.41 0,0.03 0,0.07 -0.01,0.13l0 0 -0.04 0.06 -0.88 0.03c0,0.08 0.04,0.16 0.1,0.21 0.07,0.05 0.15,0.08 0.25,0.08 0.08,0 0.15,-0.01 0.24,-0.04 0.09,-0.04 0.18,-0.08 0.28,-0.14zm0.76 0.46l-0.46 0 0 -2.05 0.46 -0.07 0 2.12zm0.34 0.63l0 -1.93 0.45 0c0.05,-0.01 0.09,-0.03 0.14,-0.03 0.04,-0.01 0.09,-0.02 0.13,-0.02 0.19,0 0.34,0.07 0.46,0.2 0.13,0.13 0.19,0.29 0.19,0.5 0,0.21 -0.07,0.38 -0.2,0.51 -0.13,0.14 -0.3,0.2 -0.51,0.2 -0.03,0 -0.06,0 -0.09,0 -0.03,-0.01 -0.07,-0.01 -0.12,-0.02l0 0.51 -0.45 0.08zm0.45 -0.93c0.03,0.01 0.06,0.02 0.08,0.02 0.03,0.01 0.05,0.01 0.07,0.01 0.09,0 0.16,-0.04 0.22,-0.11 0.06,-0.07 0.08,-0.16 0.08,-0.27 0,-0.11 -0.02,-0.19 -0.08,-0.26 -0.05,-0.07 -0.11,-0.1 -0.19,-0.1 -0.03,0 -0.05,0 -0.08,0.01 -0.03,0 -0.06,0.01 -0.1,0.02l0 0.68zm1.13 -0.15l0 -0.4 0.76 0 0 0.4 -0.76 0zm1.53 -0.21l0.55 0 -0.27 -0.66 -0.28 0.66zm-0.78 0.66l1.06 -2.15 0.03 0 1.05 2.15 -0.53 0 -0.13 -0.3 -0.85 0 -0.13 0.3 -0.5 0zm2.3 -0.43l0 -0.52 -0.19 0 0 -0.35 0.19 0 0 -0.39 0.46 -0.06 0 0.45 0.31 0 0 0.35 -0.31 0 0 0.55c0,0.11 0.02,0.2 0.05,0.25 0.03,0.05 0.09,0.1 0.18,0.15l-0.51 0.03c-0.07,-0.03 -0.11,-0.08 -0.14,-0.14 -0.02,-0.06 -0.04,-0.17 -0.04,-0.32zm0.92 -0.02l0 -0.4 0.76 0 0 0.4 -0.76 0zm1.13 0.45l0 -2.09 0.49 0 0 0.77 0.8 0 0 -0.77 0.49 0 0 2.09 -0.49 0 0 -0.87 -0.8 0 0 0.87 -0.49 0zm2.58 -0.65c0,0.11 0.02,0.2 0.07,0.27 0.05,0.07 0.11,0.1 0.18,0.1 0.08,0 0.14,-0.03 0.18,-0.1 0.05,-0.07 0.07,-0.16 0.07,-0.27 0,-0.11 -0.02,-0.19 -0.07,-0.26 -0.04,-0.07 -0.1,-0.11 -0.18,-0.11 -0.07,0 -0.13,0.04 -0.18,0.11 -0.05,0.06 -0.07,0.15 -0.07,0.26zm-0.46 0c0,-0.2 0.06,-0.37 0.2,-0.51 0.13,-0.13 0.3,-0.2 0.51,-0.2 0.21,0 0.38,0.07 0.51,0.2 0.14,0.14 0.21,0.31 0.21,0.51 0,0.21 -0.07,0.38 -0.21,0.51 -0.13,0.14 -0.3,0.2 -0.51,0.2 -0.2,0 -0.37,-0.06 -0.51,-0.2 -0.13,-0.13 -0.2,-0.3 -0.2,-0.51zm3 0.65l-0.45 0 0 -0.74c0,-0.07 -0.02,-0.12 -0.05,-0.15 -0.03,-0.04 -0.07,-0.06 -0.12,-0.06 -0.07,0 -0.13,0.03 -0.17,0.08 -0.04,0.06 -0.06,0.13 -0.06,0.23l0 0.64 -0.45 0 0 -1.3 0.42 0 0 0.22c0.07,-0.09 0.14,-0.15 0.22,-0.19 0.07,-0.04 0.15,-0.06 0.24,-0.06 0.09,0 0.17,0.02 0.23,0.06 0.06,0.04 0.12,0.1 0.16,0.19 0.06,-0.09 0.13,-0.15 0.21,-0.19 0.07,-0.04 0.16,-0.06 0.24,-0.06 0.15,0 0.25,0.04 0.32,0.12 0.07,0.08 0.11,0.21 0.11,0.38l0 0.83 -0.46 0 0 -0.74c0,-0.07 -0.01,-0.12 -0.04,-0.15 -0.03,-0.04 -0.07,-0.06 -0.12,-0.06 -0.07,0 -0.13,0.03 -0.17,0.08 -0.04,0.06 -0.06,0.13 -0.06,0.23l0 0.64zm1.53 -0.77l0.56 -0.02 0 -0.02c0,-0.06 -0.02,-0.12 -0.07,-0.16 -0.05,-0.05 -0.11,-0.07 -0.18,-0.07 -0.08,0 -0.15,0.02 -0.21,0.07 -0.05,0.05 -0.09,0.12 -0.1,0.2zm0.86 0.31l-0.05 0.4c-0.09,0.04 -0.18,0.07 -0.26,0.09 -0.09,0.02 -0.17,0.03 -0.26,0.03 -0.22,0 -0.39,-0.06 -0.53,-0.19 -0.13,-0.12 -0.19,-0.28 -0.19,-0.48 0,-0.21 0.07,-0.39 0.21,-0.53 0.15,-0.14 0.32,-0.21 0.53,-0.21 0.18,0 0.33,0.05 0.44,0.15 0.11,0.11 0.17,0.24 0.17,0.41 0,0.03 0,0.07 -0.01,0.13l0 0 -0.04 0.06 -0.88 0.03c0,0.08 0.04,0.16 0.11,0.21 0.06,0.05 0.15,0.08 0.25,0.08 0.07,0 0.15,-0.01 0.23,-0.04 0.09,-0.04 0.18,-0.08 0.28,-0.14zm0.33 0.25c0,-0.07 0.02,-0.12 0.07,-0.17 0.04,-0.05 0.1,-0.07 0.17,-0.07 0.07,0 0.12,0.02 0.17,0.07 0.05,0.05 0.07,0.1 0.07,0.17 0,0.07 -0.02,0.13 -0.07,0.18 -0.05,0.04 -0.1,0.07 -0.17,0.07 -0.07,0 -0.12,-0.03 -0.17,-0.08 -0.05,-0.05 -0.07,-0.1 -0.07,-0.17zm1.22 -0.44c0,0.11 0.02,0.2 0.07,0.27 0.05,0.07 0.11,0.1 0.18,0.1 0.07,0 0.13,-0.03 0.18,-0.1 0.05,-0.07 0.07,-0.16 0.07,-0.27 0,-0.11 -0.02,-0.19 -0.07,-0.26 -0.05,-0.07 -0.11,-0.11 -0.18,-0.11 -0.07,0 -0.13,0.04 -0.18,0.11 -0.05,0.06 -0.07,0.15 -0.07,0.26zm-0.46 0c0,-0.2 0.06,-0.37 0.2,-0.51 0.13,-0.13 0.3,-0.2 0.51,-0.2 0.21,0 0.38,0.07 0.51,0.2 0.14,0.14 0.21,0.31 0.21,0.51 0,0.21 -0.07,0.38 -0.21,0.51 -0.13,0.14 -0.3,0.2 -0.51,0.2 -0.21,0 -0.38,-0.06 -0.51,-0.2 -0.14,-0.13 -0.2,-0.3 -0.2,-0.51zm2.15 0.65l-0.46 0 0 -1.3 0.42 0 0.01 0.23c0.05,-0.09 0.12,-0.16 0.18,-0.2 0.07,-0.04 0.16,-0.06 0.26,-0.06l0.04 0 0 0.49 -0.05 0 -0.05 0c-0.14,0 -0.23,0.01 -0.28,0.04 -0.05,0.04 -0.07,0.11 -0.07,0.24l0 0.56zm1.52 -0.97c-0.02,-0.01 -0.05,-0.02 -0.07,-0.03 -0.03,-0.01 -0.05,-0.01 -0.08,-0.01 -0.08,0 -0.15,0.04 -0.21,0.11 -0.06,0.07 -0.09,0.16 -0.09,0.27 0,0.1 0.03,0.18 0.08,0.25 0.05,0.07 0.11,0.1 0.19,0.1 0.02,0 0.05,0 0.09,-0.02 0.03,-0.02 0.06,-0.04 0.09,-0.07l0 -0.6zm0.45 -0.33l0 1.18c0,0.12 0,0.21 -0.01,0.27 -0.01,0.06 -0.03,0.11 -0.06,0.16 -0.05,0.11 -0.13,0.19 -0.23,0.24 -0.11,0.05 -0.23,0.08 -0.38,0.08 -0.08,0 -0.17,-0.01 -0.26,-0.03 -0.09,-0.02 -0.19,-0.05 -0.29,-0.09l0 -0.36c0.09,0.05 0.18,0.09 0.26,0.12 0.08,0.02 0.15,0.03 0.22,0.03 0.1,0 0.18,-0.02 0.24,-0.07 0.05,-0.05 0.08,-0.12 0.08,-0.2l0 -0.09c-0.05,0.03 -0.1,0.06 -0.15,0.07 -0.06,0.02 -0.11,0.02 -0.17,0.02 -0.18,0 -0.33,-0.06 -0.44,-0.18 -0.11,-0.12 -0.17,-0.28 -0.17,-0.49 0,-0.2 0.06,-0.38 0.19,-0.51 0.13,-0.14 0.29,-0.21 0.49,-0.21 0.04,0 0.09,0.01 0.14,0.02 0.05,0.01 0.1,0.03 0.16,0.06l0.38 -0.02z"/>
  <path class="fil2 str0" d="M7.18 19.88c2.12,1 5.93,0.72 8.2,0.28 1.77,-0.34 -1.57,0.46 -1.81,0.49 -2.58,0.36 -7.81,0.93 -1.61,0.93 10.44,0 -2.04,0.35 1.49,0.91 1.03,0.17 2.48,0.23 3.29,0.79"/>
  <g id="_1832036696">
   <path class="fil3" d="M10.84 6.6c0.06,-0.03 0.12,-0.06 0.19,-0.08 0.3,-0.08 0.6,-0.03 0.84,0.15 0.48,-0.36 1.21,-0.19 1.46,0.4 0.09,0.21 0,0.44 -0.21,0.53 -0.01,0 -0.02,0.01 -0.03,0.01 0.18,0.1 0.26,0.33 0.16,0.52 -0.23,0.48 -0.71,0.87 -1.18,1.1 -0.01,0 -0.03,0.01 -0.04,0.01 0.12,0.04 0.23,0.1 0.31,0.19l0.67 -0.77c0.22,-0.26 0.56,-0.34 0.88,-0.23 0.25,0.09 0.44,0.29 0.51,0.55 0.02,0.01 0.05,0.02 0.07,0.03 0.24,0.14 0.39,0.39 0.41,0.66 0.02,0.32 -0.16,0.6 -0.43,0.77 -0.03,0.02 -0.07,0.04 -0.1,0.06 -0.08,0.05 -0.16,0.09 -0.24,0.14 -0.24,0.13 -0.48,0.27 -0.72,0.4 -0.34,0.2 -0.69,0.4 -1.03,0.6 -0.06,0.03 -0.12,0.07 -0.18,0.09 -0.19,0.09 -0.42,0.01 -0.52,-0.18 -0.07,0.19 -0.28,0.29 -0.48,0.23l-0.72 -0.2c-0.13,-0.04 -0.29,-0.04 -0.42,0.01 0.08,0.22 0.02,0.47 -0.16,0.63l-1.09 0.93c0,0 0,0 0,0l0 0.01c-0.22,0.19 -0.56,0.16 -0.76,-0.06l-1.43 -1.64c-0.2,-0.23 -0.18,-0.58 0.05,-0.78l1.09 -0.94c0.19,-0.17 0.46,-0.18 0.67,-0.05 0.21,-0.16 0.43,-0.31 0.65,-0.44 0.12,-0.06 0.24,-0.13 0.36,-0.17 0.32,-0.12 0.71,-0.15 1.04,-0.18 0.01,0 0.01,0 0.01,0 0.05,-0.01 0.09,-0.01 0.14,-0.01 0.16,0 0.31,0.04 0.47,0.08 0.09,0.02 0.17,0.05 0.25,0.07 -0.55,-0.35 -1.01,-0.91 -1.01,-1.58 0,-0.18 0.05,-0.34 0.13,-0.48 -0.29,0.15 -0.66,0.13 -0.92,-0.1 -0.12,-0.1 -0.21,-0.24 -0.25,-0.4 -0.16,-0.06 -0.28,-0.17 -0.37,-0.32 0,0 -0.01,-0.01 -0.01,-0.01 -0.24,-0.42 -0.06,-0.88 0.32,-1.13 0.03,-0.02 0.07,-0.04 0.11,-0.06 0.07,-0.05 0.15,-0.09 0.23,-0.14 0.24,-0.13 0.48,-0.27 0.72,-0.41 0.34,-0.19 0.69,-0.39 1.03,-0.59 0.32,-0.2 0.71,-0.26 1.07,-0.17 0.05,0.01 0.1,0.02 0.14,0.04 0.1,0.02 0.19,0.05 0.28,0.07 0.14,0.04 0.27,0.08 0.41,0.12 0.13,0.04 0.29,0.04 0.42,-0.02 -0.03,-0.07 -0.04,-0.15 -0.03,-0.23 0.01,-0.15 0.08,-0.29 0.19,-0.39l1.09 -0.93c0.22,-0.2 0.56,-0.19 0.77,0.02 0,0.01 0.01,0.02 0.02,0.03l1.36 1.58c0.22,0.26 0.19,0.66 -0.07,0.89l-1.03 0.89c-0.19,0.17 -0.46,0.18 -0.67,0.05 -0.21,0.16 -0.43,0.31 -0.65,0.44 -0.12,0.06 -0.24,0.12 -0.36,0.17 -0.32,0.12 -0.71,0.15 -1.04,0.18 -0.03,0 -0.06,0.01 -0.09,0.01 -0.18,0 -0.35,-0.03 -0.51,-0.08 -0.31,-0.08 -0.62,-0.17 -0.93,-0.26 -0.14,-0.04 -0.26,-0.1 -0.35,-0.2l-0.49 0.57zm-1.89 3.68l0.59 0.68c0.33,-0.22 0.75,-0.26 1.14,-0.15l0.72 0.2c0.11,0.04 0.2,0.11 0.25,0.21 0.04,-0.09 0.11,-0.17 0.21,-0.22 0.02,-0.01 0.05,-0.02 0.07,-0.04 0.01,0 0.01,0 0.02,-0.01 0,0 0,0 0,0l2.07 -1.18c0.01,-0.02 0.04,-0.04 0.05,-0.06 -0.03,0.01 -0.07,0.03 -0.09,0.04 -0.08,0.04 -0.18,0.08 -0.27,0.11 -0.18,0.08 -0.36,0.15 -0.54,0.22 -0.23,0.1 -0.46,0.2 -0.7,0.29 -0.14,0.26 -0.41,0.39 -0.71,0.35 -0.33,-0.05 -0.67,-0.09 -1,-0.14 -0.22,-0.03 -0.37,-0.23 -0.34,-0.45 0.02,-0.22 0.23,-0.37 0.44,-0.34 0.12,0.01 0.23,0.03 0.35,0.05 -0.14,-0.04 -0.28,-0.08 -0.41,-0.12 -0.07,-0.01 -0.14,-0.03 -0.21,-0.03 -0.02,0 -0.03,0 -0.04,0 -0.19,0.02 -0.39,0.04 -0.58,0.07 -0.1,0.02 -0.19,0.04 -0.29,0.07 -0.07,0.03 -0.15,0.07 -0.22,0.12 -0.17,0.1 -0.34,0.21 -0.51,0.33zm3.82 -2.7c-0.07,-0.04 -0.14,-0.11 -0.17,-0.19 -0.02,-0.05 -0.07,-0.09 -0.12,-0.1 -0.09,-0.02 -0.15,0.02 -0.19,0.09 -0.09,0.14 -0.25,0.23 -0.41,0.23 -0.17,0.01 -0.35,-0.09 -0.43,-0.24 -0.09,-0.15 -0.33,-0.09 -0.33,0.09 0,0.42 0.39,0.77 0.75,0.97 0.26,-0.15 0.54,-0.38 0.67,-0.65 0.04,-0.1 0.13,-0.17 0.23,-0.2zm-0.32 -1.96c0.12,0.04 0.23,0.07 0.35,0.1 0.09,0.02 0.21,0.05 0.3,0.05 0.01,0 0.02,0 0.02,0 0.2,-0.02 0.39,-0.04 0.58,-0.07 0.1,-0.02 0.2,-0.04 0.29,-0.07 0.07,-0.03 0.15,-0.08 0.22,-0.12 0.17,-0.1 0.35,-0.21 0.51,-0.33 -0.2,-0.23 -0.39,-0.45 -0.59,-0.68 -0.33,0.22 -0.75,0.26 -1.14,0.15l-0.8 -0.23c-0.15,-0.03 -0.32,-0.01 -0.45,0.08 -0.01,0 -0.01,0 -0.02,0.01l0 0 -0.01 0 -2.06 1.18c-0.01,0.01 -0.04,0.04 -0.05,0.05 0.01,0 0.01,0 0.02,0 0.08,-0.03 0.18,-0.08 0.27,-0.11 0.39,-0.16 0.78,-0.32 1.17,-0.49l0.14 -0.05c0.14,-0.26 0.41,-0.39 0.71,-0.35 0.34,0.05 0.67,0.09 1,0.14 0.22,0.03 0.38,0.23 0.35,0.45 -0.03,0.21 -0.23,0.37 -0.45,0.34 -0.12,-0.02 -0.24,-0.03 -0.36,-0.05zm3.86 -1.29l-1.09 -1.27 -0.73 0.63c0.03,0.04 0.07,0.08 0.1,0.11 0.15,0.18 0.3,0.35 0.45,0.53 0.15,0.18 0.3,0.35 0.46,0.53 0.03,0.03 0.06,0.07 0.09,0.1 0,0 0,0 0,0 0.11,-0.1 0.22,-0.19 0.33,-0.29 0.13,-0.11 0.26,-0.22 0.39,-0.34zm-8.23 6.17l-0.72 0.62 1.11 1.26c0.12,-0.1 0.23,-0.2 0.35,-0.31 0.12,-0.1 0.23,-0.2 0.35,-0.3 0,0 0.01,0 0.01,0 -0.37,-0.43 -0.73,-0.85 -1.1,-1.27z"/>
  </g>
  <path class="fil4" d="M16.84 4.1l-1.36 -1.58c0,-0.01 0,-0.01 -0.01,-0.01 -0.11,-0.12 -0.31,-0.13 -0.43,-0.02l-1.09 0.94c-0.06,0.05 -0.1,0.13 -0.11,0.22 0,0.08 0.02,0.16 0.08,0.23l0.04 0.05 -0.07 0.06c-0.19,0.16 -0.46,0.2 -0.75,0.12 0,0 -0.81,-0.23 -0.81,-0.23 -0.15,-0.03 -0.53,-0.08 -0.89,0.15 -0.01,0 -2.08,1.19 -2.08,1.19 -0.19,0.13 -0.46,0.43 -0.25,0.81 0.01,0 0.01,0 0.01,0 0.09,0.15 0.22,0.24 0.37,0.26 0.01,0.16 0.08,0.3 0.2,0.41 0.23,0.2 0.59,0.17 0.79,-0.06l0.77 -0.89c0.03,-0.03 0.06,-0.07 0.08,-0.12l0.03 -0.01c0.04,0.16 0.15,0.31 0.39,0.38 0.96,0.27 1.16,0.35 1.43,0.32 0.75,-0.08 0.93,-0.11 1.3,-0.32 0.28,-0.16 0.54,-0.34 0.8,-0.55l0.04 0.05c0.12,0.14 0.32,0.15 0.45,0.04l1.03 -0.9c0.16,-0.13 0.18,-0.38 0.04,-0.54zm-6.59 2.34c-0.16,0.18 -0.45,0.06 -0.45,-0.18 0,0 0.92,-0.38 0.92,-0.38l-0.47 0.56zm4.08 -0.71c-0.32,0.18 -0.43,0.2 -1.18,0.28 -0.2,0.02 -0.36,-0.04 -1.32,-0.31 -0.12,-0.04 -0.15,-0.1 -0.17,-0.15 -0.02,-0.06 0,-0.12 0,-0.12 0,0 0,0 0,-0.01 0,0 0,0 0,0 0,0 0.01,-0.04 0.03,-0.08 0.03,-0.03 0.06,-0.06 0.15,-0.05 0.29,0.04 0.99,0.14 1,0.14 0.08,0.01 0.16,-0.05 0.17,-0.14 0.02,-0.08 -0.04,-0.16 -0.13,-0.17 -0.01,0 -0.71,-0.1 -1,-0.14 -0.28,-0.03 -0.44,0.14 -0.5,0.3l-0.23 0.09c-1.79,0.74 -1.39,0.58 -1.52,0.62 -0.25,0.03 -0.42,-0.29 -0.11,-0.5l2.08 -1.19c0,0 0,0 0,0 0,0 0,-0.01 0.01,-0.01 0.26,-0.17 0.53,-0.13 0.64,-0.1l0.81 0.22c0.38,0.11 0.77,0.04 1.03,-0.19l0.07 -0.06c0.12,0.14 0.81,0.93 0.91,1.05 -0.24,0.2 -0.48,0.37 -0.74,0.52zm2.27 -1.32c0,0 -1.03,0.89 -1.04,0.89 0,0 -1.42,-1.63 -1.41,-1.64l1.09 -0.93 0 0c0,-0.01 0,-0.01 0.01,-0.01 0,0 0,0 0,0.01l1.36 1.58c0.02,0.03 0.02,0.07 -0.01,0.1zm-2.42 4.76c-0.02,-0.51 -0.65,-0.74 -0.99,-0.35l-0.77 0.89c-0.03,0.03 -0.06,0.07 -0.08,0.12l-0.03 0.01c-0.04,-0.16 -0.15,-0.31 -0.38,-0.38 -1.03,-0.29 -1.16,-0.34 -1.44,-0.32 0,0 0,0 0,0 -0.75,0.08 -0.92,0.11 -1.3,0.32 -0.28,0.16 -0.54,0.34 -0.79,0.55l-0.05 -0.05c-0.12,-0.14 -0.32,-0.15 -0.45,-0.04l-1.09 0.94c-0.13,0.12 -0.14,0.31 -0.03,0.44l1.44 1.64c0.1,0.12 0.29,0.13 0.41,0.03 0,0 0,0 0.01,0l1.08 -0.94c0.13,-0.11 0.15,-0.31 0.03,-0.45l-0.04 -0.05 0.07 -0.06c0.19,-0.16 0.47,-0.21 0.75,-0.13l0.72 0.21c0.08,0.02 0.17,-0.03 0.19,-0.11 0.03,-0.08 -0.02,-0.17 -0.1,-0.19l-0.73 -0.21c-0.38,-0.1 -0.77,-0.03 -1.03,0.2l-0.07 0.06 -0.91 -1.05c0.24,-0.2 0.49,-0.37 0.74,-0.52 0.32,-0.18 0.43,-0.2 1.18,-0.28 0.18,-0.02 0.29,0.02 0.89,0.19 0.46,0.13 0.56,0.13 0.6,0.27 0.02,0.06 0,0.12 0,0.12 0,0.04 -0.02,0.07 -0.03,0.09 -0.03,0.03 -0.06,0.06 -0.14,0.05 -0.3,-0.04 -1,-0.14 -1.01,-0.14 -0.08,-0.01 -0.16,0.05 -0.17,0.14 -0.01,0.08 0.05,0.16 0.13,0.17 0.01,0 0.71,0.09 1,0.14 0.25,0.03 0.43,-0.1 0.5,-0.3 0.01,0 1.57,-0.64 1.58,-0.65 0.16,-0.08 0.32,-0.1 0.42,0.06 0.11,0.2 -0.09,0.35 -0.14,0.38l-2.08 1.19c0,0 0,0 0,0 0,0 0,0.01 -0.01,0.01 -0.03,0.02 -0.07,0.04 -0.1,0.06 -0.08,0.03 -0.12,0.12 -0.08,0.2 0.03,0.08 0.12,0.11 0.2,0.08 0.05,-0.02 0.1,-0.05 0.15,-0.08 0.01,0 2.08,-1.19 2.09,-1.19 0.56,-0.37 0.29,-1.01 -0.14,-1.07zm-4.66 2.62c0,0 0,0 0,0 0,0.01 -1.07,0.93 -1.08,0.93l-1.42 -1.62 1.08 -0.94c0,0 0.01,0 0.01,0 0,0 0,0 0,0 0.15,0.17 1.26,1.45 1.41,1.63zm3.43 -2.21l0.48 -0.56c0.15,-0.17 0.45,-0.06 0.44,0.18 0,0 -0.92,0.38 -0.92,0.38zm-1.29 -2.33c0.03,0.05 0.11,0.12 0.21,0.12 0.09,0 0.17,-0.05 0.21,-0.12 0.2,-0.32 0.62,-0.25 0.74,0.04 0.04,0.08 0.13,0.12 0.21,0.08 0.08,-0.03 0.11,-0.12 0.08,-0.2 -0.21,-0.5 -0.89,-0.61 -1.24,-0.16 -0.43,-0.55 -1.3,-0.24 -1.3,0.45 0,0.72 0.62,1.27 1.21,1.55 0.06,0.02 0.12,0.02 0.18,-0.01 0.42,-0.19 0.87,-0.55 1.08,-0.98 0.03,-0.07 0,-0.17 -0.08,-0.2 -0.07,-0.04 -0.17,-0.01 -0.21,0.07 -0.16,0.35 -0.54,0.64 -0.88,0.81 -0.49,-0.24 -0.99,-0.68 -0.99,-1.24 0,-0.43 0.56,-0.58 0.78,-0.21z"/>
 </g>
</svg>
