<?xml version="1.0" encoding="UTF-8"?>
<!DOCTYPE svg PUBLIC "-//W3C//DTD SVG 1.1//EN" "http://www.w3.org/Graphics/SVG/1.1/DTD/svg11.dtd">
<!-- Creator: CorelDRAW Home & Student 2019 -->
<svg xmlns="http://www.w3.org/2000/svg" xml:space="preserve" width="1000px" height="729px" version="1.1" style="shape-rendering:geometricPrecision; text-rendering:geometricPrecision; image-rendering:optimizeQuality; fill-rule:evenodd; clip-rule:evenodd"
viewBox="0 0 55.88 40.75"
 xmlns:xlink="http://www.w3.org/1999/xlink">
 <defs>
  <style type="text/css">
   <![CDATA[
    .str0 {stroke:#535461;stroke-width:0.1;stroke-miterlimit:22.9256}
    .fil11 {fill:none}
    .fil36 {fill:#289489}
    .fil15 {fill:#333333}
    .fil18 {fill:#381E1D}
    .fil12 {fill:#4DB6AC}
    .fil3 {fill:#535461}
    .fil31 {fill:#5C3D53}
    .fil13 {fill:#5D291B}
    .fil34 {fill:#5E52AD}
    .fil27 {fill:#774E55}
    .fil21 {fill:#999999}
    .fil23 {fill:#CCCCCC}
    .fil5 {fill:#E0E0E0}
    .fil20 {fill:#E6E6E6}
    .fil7 {fill:#EC7336}
    .fil6 {fill:#EEEEEE}
    .fil14 {fill:#F55F44}
    .fil33 {fill:#F8BDC5}
    .fil19 {fill:#FCD6C5}
    .fil22 {fill:#FDA57D}
    .fil8 {fill:white}
    .fil30 {fill:white}
    .fil35 {fill:black;fill-opacity:0.011765}
    .fil1 {fill:#EC7336;fill-opacity:0.019608}
    .fil2 {fill:#EC7336;fill-opacity:0.039216}
    .fil32 {fill:black;fill-opacity:0.050980}
    .fil26 {fill:white;fill-opacity:0.070588}
    .fil4 {fill:black;fill-opacity:0.101961}
    .fil24 {fill:#EC7336;fill-opacity:0.101961}
    .fil10 {fill:white;fill-opacity:0.149020}
    .fil28 {fill:black;fill-opacity:0.200000}
    .fil0 {fill:#EC7336;fill-opacity:0.200000}
    .fil25 {fill:white;fill-opacity:0.200000}
    .fil29 {fill:white;fill-opacity:0.200000}
    .fil17 {fill:#030B44;fill-opacity:0.301961}
    .fil16 {fill:#E0E0E0;fill-opacity:0.301961}
    .fil9 {fill:#EC7336;fill-opacity:0.701961}
   ]]>
  </style>
 </defs>
 <g id="Ebene_x0020_1">
  <metadata id="CorelCorpID_0Corel-Layer"/>
  <path class="fil0" d="M41.66 19.24c0,-2.25 -0.69,-4.29 -1.82,-5.81 0.35,-0.74 0.54,-1.55 0.54,-2.37 0,-3.01 -2.44,-5.45 -5.45,-5.45 -3.01,0 -5.45,2.44 -5.45,5.45 0,0.82 0.18,1.63 0.54,2.37 -1.13,1.52 -1.83,3.56 -1.83,5.81 0,2.24 0.7,4.29 1.83,5.81 -0.36,0.73 -0.54,1.54 -0.54,2.36 0,3.01 2.44,5.45 5.45,5.45 3.01,0 5.45,-2.44 5.45,-5.45 0,-0.82 -0.19,-1.63 -0.54,-2.36 1.13,-1.52 1.82,-3.57 1.82,-5.81z"/>
  <path class="fil1" d="M41.66 19.24c0,-2.25 -0.69,-4.29 -1.82,-5.81 0.35,-0.74 0.54,-1.55 0.54,-2.37 0,-3.01 -2.44,-5.45 -5.45,-5.45 -3.01,0 -5.45,2.44 -5.45,5.45 0,0.82 0.18,1.63 0.54,2.37 -1.13,1.52 -1.83,3.56 -1.83,5.81 0,2.24 0.7,4.29 1.83,5.81 -0.36,0.73 -0.54,1.54 -0.54,2.36 0,3.01 2.44,5.45 5.45,5.45 3.01,0 5.45,-2.44 5.45,-5.45 0,-0.82 -0.19,-1.63 -0.54,-2.36 1.13,-1.52 1.82,-3.57 1.82,-5.81z"/>
  <path class="fil0" d="M41.98 19.24c0,-2.25 -0.69,-4.29 -1.82,-5.81 0.35,-0.74 0.54,-1.55 0.54,-2.37 0,-3.01 -2.44,-5.45 -5.45,-5.45 -3.01,0 -5.45,2.44 -5.45,5.45 0,0.82 0.18,1.63 0.54,2.37 -1.13,1.52 -1.83,3.56 -1.83,5.81 0,2.24 0.7,4.29 1.83,5.81 -0.36,0.73 -0.54,1.54 -0.54,2.36 0,3.01 2.44,5.45 5.45,5.45 3.01,0 5.45,-2.44 5.45,-5.45 0,-0.82 -0.19,-1.63 -0.54,-2.36 1.13,-1.52 1.82,-3.57 1.82,-5.81z"/>
  <polygon class="fil0" points="35.89,39.92 34.61,39.92 35.25,18.76 "/>
  <polygon class="fil0" points="35.41,24.04 39.58,22.28 35.41,24.53 "/>
  <polygon class="fil0" points="35.03,25.97 33.8,24.53 35,26.77 "/>
  <path class="fil0" d="M51.44 26.5c0,-1.45 -0.45,-2.77 -1.18,-3.76 0.23,-0.47 0.35,-0.99 0.35,-1.52 0,-1.95 -1.58,-3.53 -3.52,-3.53 -1.95,0 -3.52,1.58 -3.52,3.53 0,0.53 0.11,1.05 0.34,1.52 -0.73,0.99 -1.17,2.31 -1.17,3.76 0,1.45 0.44,2.77 1.17,3.75 -0.23,0.48 -0.34,1 -0.34,1.53 0,1.95 1.57,3.52 3.52,3.52 1.94,0 3.52,-1.57 3.52,-3.52 0,-0.53 -0.12,-1.05 -0.35,-1.53 0.73,-0.98 1.18,-2.3 1.18,-3.75z"/>
  <path class="fil1" d="M51.44 26.5c0,-1.45 -0.45,-2.77 -1.18,-3.76 0.23,-0.47 0.35,-0.99 0.35,-1.52 0,-1.95 -1.58,-3.53 -3.52,-3.53 -1.95,0 -3.52,1.58 -3.52,3.53 0,0.53 0.11,1.05 0.34,1.52 -0.73,0.99 -1.17,2.31 -1.17,3.76 0,1.45 0.44,2.77 1.17,3.75 -0.23,0.48 -0.34,1 -0.34,1.53 0,1.95 1.57,3.52 3.52,3.52 1.94,0 3.52,-1.57 3.52,-3.52 0,-0.53 -0.12,-1.05 -0.35,-1.53 0.73,-0.98 1.18,-2.3 1.18,-3.75z"/>
  <path class="fil0" d="M51.65 26.5c0,-1.45 -0.45,-2.77 -1.18,-3.76 0.23,-0.47 0.35,-0.99 0.35,-1.52 0,-1.95 -1.58,-3.53 -3.52,-3.53 -1.95,0 -3.53,1.58 -3.53,3.53 0,0.53 0.12,1.05 0.35,1.52 -0.73,0.99 -1.18,2.31 -1.18,3.76 0,1.45 0.45,2.77 1.18,3.75 -0.23,0.48 -0.35,1 -0.35,1.53 0,1.95 1.58,3.52 3.53,3.52 1.94,0 3.52,-1.57 3.52,-3.52 0,-0.53 -0.12,-1.05 -0.35,-1.53 0.73,-0.98 1.18,-2.3 1.18,-3.75z"/>
  <polygon class="fil2" points="47.71,39.87 46.88,39.87 47.3,26.19 "/>
  <polygon class="fil0" points="47.4,29.61 50.09,28.47 47.4,29.92 "/>
  <polygon class="fil2" points="47.15,30.85 46.36,29.92 47.14,31.37 "/>
  <rect class="fil3" x="38.13" y="34.72" width="0.15" height="2.23"/>
  <rect class="fil3" x="37.98" y="37.24" width="0.37" height="2.6"/>
  <rect class="fil3" x="45.85" y="37.24" width="0.37" height="2.6"/>
  <polygon class="fil4" points="37.98,39.84 38.35,39.84 38.35,37.24 37.98,37.24 "/>
  <polygon class="fil4" points="45.85,39.84 46.23,39.84 46.23,37.24 45.85,37.24 "/>
  <rect class="fil3" x="46" y="34.72" width="0.15" height="2.23"/>
  <polygon class="fil4" points="38.13,36.95 38.28,36.95 38.28,34.72 38.13,34.72 "/>
  <polygon class="fil4" points="46.15,34.72 46,34.72 46,36.95 46.15,36.95 "/>
  <rect class="fil3" x="37.46" y="34.57" width="9.36" height="0.45"/>
  <rect class="fil3" x="37.46" y="35.31" width="9.36" height="0.45"/>
  <rect class="fil3" x="37.46" y="36.06" width="9.36" height="0.45"/>
  <rect class="fil3" x="37.46" y="36.87" width="9.36" height="0.82"/>
  <rect class="fil5" x="26.06" y="7.8" width="3.34" height="6.46"/>
  <polygon class="fil6" points="32.86,17.71 32.86,39.77 2.86,39.77 2.86,17.71 5.38,16.16 7.76,14.7 17.9,8.47 "/>
  <polygon class="fil4" points="29.07,39.77 29.07,16.57 28.63,16.85 28.63,39.77 "/>
  <rect class="fil7" x="14.52" y="29.48" width="6.68" height="10.25"/>
  <circle class="fil3" cx="20.2" cy="34.61" r="0.3"/>
  <polygon class="fil4" points="26.06,8.25 29.41,8.25 29.41,7.87 26.06,7.87 "/>
  <rect class="fil5" x="25.47" y="7.43" width="4.46" height="0.74"/>
  <polygon class="fil4" points="2.86,23.51 32.86,23.51 32.86,22.91 2.86,22.91 "/>
  <rect class="fil8" x="2.86" y="22.84" width="30" height="0.59"/>
  <polygon class="fil4" points="28.26,14.26 29.07,14.26 29.07,7.43 28.26,7.43 "/>
  <polygon class="fil4" points="27.66,14.3 27.88,14.3 27.88,7.47 27.66,7.47 "/>
  <polygon class="fil4" points="32.12,16.82 32.12,39.77 29.74,39.77 29.74,16.16 "/>
  <polygon class="fil4" points="7.09,14.7 7.09,39.77 4.72,39.77 4.72,16.16 "/>
  <polygon class="fil4" points="4.05,39.77 4.05,16.57 3.6,16.85 3.6,39.77 "/>
  <polygon class="fil4" points="17.9,6.02 0,19.01 1.19,20.94 17.9,9.58 34.6,20.94 35.79,19.01 "/>
  <polygon class="fil7" points="17.9,5.87 0,18.86 1.19,20.8 17.9,9.43 34.6,20.8 35.79,18.86 "/>
  <polygon class="fil9" points="5.35,33.2 11.58,33.2 11.58,26.96 5.35,26.96 "/>
  <polygon class="fil4" points="5.09,33.75 11.77,33.75 11.77,33.01 5.09,33.01 "/>
  <rect class="fil3" x="5.09" y="32.86" width="6.68" height="0.74"/>
  <polygon class="fil10" points="7.95,27 5.38,30.54 5.38,28.74 6.83,27 "/>
  <polygon class="fil10" points="10.16,27 5.38,32.02 5.38,31.13 8.95,27 "/>
  <line class="fil11 str0" x1="5.35" y1="30.08" x2="11.58" y2= "30.08" />
  <line class="fil11 str0" x1="5.38" y1="27" x2="11.62" y2= "27" />
  <line class="fil11 str0" x1="11.55" y1="27" x2="11.55" y2= "33.23" />
  <line class="fil11 str0" x1="5.38" y1="26.92" x2="5.38" y2= "33.16" />
  <polygon class="fil9" points="30.37,26.96 24.13,26.96 24.13,33.2 30.37,33.2 "/>
  <polygon class="fil4" points="30.63,33.01 23.95,33.01 23.95,33.75 30.63,33.75 "/>
  <rect class="fil3" x="23.95" y="32.86" width="6.68" height="0.74"/>
  <polygon class="fil10" points="27.76,27 30.33,30.54 30.33,28.74 28.89,27 "/>
  <polygon class="fil10" points="25.56,27 30.33,32.02 30.33,31.13 26.77,27 "/>
  <line class="fil11 str0" x1="30.37" y1="30.08" x2="24.13" y2= "30.08" />
  <line class="fil11 str0" x1="30.33" y1="27" x2="24.1" y2= "27" />
  <line class="fil11 str0" x1="24.17" y1="27" x2="24.17" y2= "33.23" />
  <line class="fil11 str0" x1="30.33" y1="26.92" x2="30.33" y2= "33.16" />
  <polygon class="fil9" points="20.94,14.26 14.7,14.26 14.7,20.5 20.94,20.5 "/>
  <polygon class="fil4" points="21.2,20.31 14.52,20.31 14.52,21.06 21.2,21.06 "/>
  <rect class="fil3" x="14.52" y="20.16" width="6.68" height="0.74"/>
  <polygon class="fil10" points="18.33,14.3 20.9,17.85 20.9,16.04 19.46,14.3 "/>
  <polygon class="fil10" points="16.12,14.3 20.9,19.32 20.9,18.43 17.34,14.3 "/>
  <line class="fil11 str0" x1="20.94" y1="17.38" x2="14.7" y2= "17.38" />
  <line class="fil11 str0" x1="20.9" y1="14.3" x2="14.67" y2= "14.3" />
  <line class="fil11 str0" x1="17.82" y1="14.26" x2="17.82" y2= "20.5" />
  <line class="fil11 str0" x1="14.74" y1="14.3" x2="14.74" y2= "20.54" />
  <line class="fil11 str0" x1="20.9" y1="14.22" x2="20.9" y2= "20.46" />
  <path class="fil12" d="M35.16 30.19c0,-0.02 0,-0.04 0,-0.06 0,-0.94 -0.29,-1.86 -0.84,-2.63 0.16,-0.34 0.25,-0.72 0.25,-1.1 0,-1.39 -1.13,-2.52 -2.53,-2.52 -1.39,0 -2.52,1.13 -2.52,2.52 0,0.38 0.08,0.76 0.25,1.1 -0.55,0.79 -0.85,1.73 -0.85,2.69 0,0.96 0.3,1.9 0.85,2.69 -0.17,0.34 -0.25,0.72 -0.25,1.1 0,1.39 1.13,2.52 2.52,2.52 1.4,0 2.53,-1.13 2.53,-2.52 0,-0.38 -0.09,-0.76 -0.25,-1.1 0.55,-0.77 0.84,-1.69 0.84,-2.63 0,-0.02 0,-0.04 0,-0.06l0 0z"/>
  <path class="fil4" d="M35.16 30.19c0,-0.02 0,-0.04 0,-0.06 0,-0.94 -0.29,-1.86 -0.84,-2.63 0.16,-0.34 0.25,-0.72 0.25,-1.1 0,-1.39 -1.13,-2.52 -2.53,-2.52 -1.39,0 -2.52,1.13 -2.52,2.52 0,0.38 0.08,0.76 0.25,1.1 -0.55,0.79 -0.85,1.73 -0.85,2.69 0,0.96 0.3,1.9 0.85,2.69 -0.17,0.34 -0.25,0.72 -0.25,1.1 0,1.39 1.13,2.52 2.52,2.52 1.4,0 2.53,-1.13 2.53,-2.52 0,-0.38 -0.09,-0.76 -0.25,-1.1 0.55,-0.77 0.84,-1.69 0.84,-2.63 0,-0.02 0,-0.04 0,-0.06l0 0z"/>
  <path class="fil12" d="M35.31 30.19c0,-0.02 0,-0.04 0,-0.06 0,-0.94 -0.29,-1.86 -0.84,-2.63 0.16,-0.34 0.25,-0.72 0.25,-1.1 0,-1.39 -1.13,-2.52 -2.53,-2.52 -1.39,0 -2.52,1.13 -2.52,2.52 0,0.38 0.08,0.76 0.25,1.1 -0.55,0.79 -0.85,1.73 -0.85,2.69 0,0.96 0.3,1.9 0.85,2.69 -0.17,0.34 -0.25,0.72 -0.25,1.1 0,1.39 1.13,2.52 2.52,2.52 1.4,0 2.53,-1.13 2.53,-2.52 0,-0.38 -0.09,-0.76 -0.25,-1.1 0.55,-0.77 0.84,-1.69 0.84,-2.63 0,-0.02 0,-0.04 0,-0.06l0 0z"/>
  <polygon class="fil13" points="32.49,39.77 31.89,39.77 32.19,29.97 "/>
  <polygon class="fil13" points="32.27,32.42 34.2,31.6 32.27,32.64 "/>
  <polygon class="fil13" points="32.09,33.31 31.52,32.64 32.08,33.68 "/>
  <path class="fil12" d="M55.73 30.19c0,-0.02 0,-0.04 0,-0.06 0,-0.94 -0.29,-1.86 -0.84,-2.63 0.16,-0.34 0.25,-0.72 0.25,-1.1 0,-1.39 -1.13,-2.52 -2.53,-2.52 -1.39,0 -2.52,1.13 -2.52,2.52 0,0.38 0.08,0.76 0.25,1.1 -0.55,0.79 -0.85,1.73 -0.85,2.69 0,0.96 0.3,1.9 0.85,2.69 -0.17,0.34 -0.25,0.72 -0.25,1.1 0,1.39 1.13,2.52 2.52,2.52 1.4,0 2.53,-1.13 2.53,-2.52 0,-0.38 -0.09,-0.76 -0.25,-1.1 0.55,-0.77 0.84,-1.69 0.84,-2.63 0,-0.02 0,-0.04 0,-0.06l0 0z"/>
  <path class="fil4" d="M55.73 30.19c0,-0.02 0,-0.04 0,-0.06 0,-0.94 -0.29,-1.86 -0.84,-2.63 0.16,-0.34 0.25,-0.72 0.25,-1.1 0,-1.39 -1.13,-2.52 -2.53,-2.52 -1.39,0 -2.52,1.13 -2.52,2.52 0,0.38 0.08,0.76 0.25,1.1 -0.55,0.79 -0.85,1.73 -0.85,2.69 0,0.96 0.3,1.9 0.85,2.69 -0.17,0.34 -0.25,0.72 -0.25,1.1 0,1.39 1.13,2.52 2.52,2.52 1.4,0 2.53,-1.13 2.53,-2.52 0,-0.38 -0.09,-0.76 -0.25,-1.1 0.55,-0.77 0.84,-1.69 0.84,-2.63 0,-0.02 0,-0.04 0,-0.06l0 0z"/>
  <path class="fil12" d="M55.88 30.19c0,-0.02 0,-0.04 0,-0.06 0,-0.94 -0.3,-1.86 -0.84,-2.63 0.16,-0.34 0.25,-0.72 0.25,-1.1 0,-1.39 -1.13,-2.52 -2.53,-2.52 -1.39,0 -2.52,1.13 -2.52,2.52 0,0.38 0.08,0.76 0.25,1.1 -0.55,0.79 -0.85,1.73 -0.85,2.69 0,0.96 0.3,1.9 0.85,2.69 -0.17,0.34 -0.25,0.72 -0.25,1.1 0,1.39 1.13,2.52 2.52,2.52 1.4,0 2.53,-1.13 2.53,-2.52 0,-0.38 -0.09,-0.76 -0.25,-1.1 0.54,-0.77 0.84,-1.69 0.84,-2.63 0,-0.02 0,-0.04 0,-0.06l0 0z"/>
  <polygon class="fil13" points="53.06,39.77 52.46,39.77 52.76,29.97 "/>
  <polygon class="fil13" points="52.84,32.42 54.77,31.6 52.84,32.64 "/>
  <polygon class="fil13" points="52.66,33.31 52.09,32.64 52.65,33.68 "/>
  <circle class="fil14" cx="54.25" cy="30.78" r="0.37"/>
  <path class="fil12" d="M8.35 37.94c0,-0.03 0,-0.07 0,-0.1 0,0 0,0 0,0 0,-0.74 -0.59,-1.34 -1.33,-1.34 -0.24,0 -0.47,0.07 -0.68,0.19 -0.23,-0.44 -0.69,-0.71 -1.18,-0.71 -0.42,0 -0.82,0.2 -1.07,0.55 -0.09,-0.02 -0.18,-0.03 -0.27,-0.03 -0.73,0 -1.33,0.6 -1.33,1.34 0,0.31 0.11,0.62 0.31,0.86 -0.06,0.15 -0.09,0.31 -0.09,0.48 0,0.73 0.6,1.33 1.34,1.33 0.19,0 0.38,-0.04 0.55,-0.12 0.18,0.08 0.37,0.12 0.56,0.12 0.33,0 0.65,-0.12 0.89,-0.34 0.25,0.22 0.56,0.34 0.89,0.34 0.15,0 0.31,-0.03 0.45,-0.08 0.14,0.05 0.29,0.08 0.44,0.08 0.74,0 1.34,-0.6 1.34,-1.34 0,-0.54 -0.32,-1.02 -0.82,-1.23l0 0z"/>
  <path class="fil4" d="M8.35 37.94c0,-0.03 0,-0.07 0,-0.1 0,0 0,0 0,0 0,-0.74 -0.59,-1.34 -1.33,-1.34 -0.24,0 -0.47,0.07 -0.68,0.19 -0.23,-0.44 -0.69,-0.71 -1.18,-0.71 -0.42,0 -0.82,0.2 -1.07,0.55 -0.09,-0.02 -0.18,-0.03 -0.27,-0.03 -0.73,0 -1.33,0.6 -1.33,1.34 0,0.31 0.11,0.62 0.31,0.86 -0.06,0.15 -0.09,0.31 -0.09,0.48 0,0.73 0.6,1.33 1.34,1.33 0.19,0 0.38,-0.04 0.55,-0.12 0.18,0.08 0.37,0.12 0.56,0.12 0.33,0 0.65,-0.12 0.89,-0.34 0.25,0.22 0.56,0.34 0.89,0.34 0.15,0 0.31,-0.03 0.45,-0.08 0.14,0.05 0.29,0.08 0.44,0.08 0.74,0 1.34,-0.6 1.34,-1.34 0,-0.54 -0.32,-1.02 -0.82,-1.23l0 0z"/>
  <path class="fil12" d="M8.5 37.94c0,-0.03 0,-0.07 0,-0.1 0,0 0,0 0,0 0,-0.74 -0.6,-1.34 -1.33,-1.34 -0.24,0 -0.48,0.07 -0.68,0.19 -0.23,-0.44 -0.69,-0.71 -1.18,-0.71 -0.42,0 -0.82,0.2 -1.08,0.55 -0.08,-0.02 -0.17,-0.03 -0.26,-0.03 -0.74,0 -1.33,0.6 -1.33,1.34 0,0.31 0.11,0.62 0.31,0.86 -0.06,0.15 -0.09,0.31 -0.09,0.48 0,0.73 0.6,1.33 1.33,1.33 0.2,0 0.39,-0.04 0.56,-0.12 0.18,0.08 0.37,0.12 0.56,0.12 0.33,0 0.65,-0.12 0.89,-0.34 0.24,0.22 0.56,0.34 0.89,0.34 0.15,0 0.3,-0.03 0.45,-0.08 0.14,0.05 0.29,0.08 0.44,0.08 0.74,0 1.34,-0.6 1.34,-1.34 0,-0.54 -0.32,-1.02 -0.82,-1.23l0 0z"/>
  <rect class="fil15" x="1.15" y="39.9" width="51.31" height="0.85"/>
  <path class="fil16" d="M20.99 0l9.22 0c0.62,0 1.12,0.5 1.12,1.12l0 0c0,0.62 -0.5,1.12 -1.12,1.12l-9.22 0c-0.62,0 -1.12,-0.5 -1.12,-1.12l0 0c0,-0.62 0.5,-1.12 1.12,-1.12z"/>
  <path class="fil16" d="M18.19 2.24l9.23 0c0.62,0 1.12,0.5 1.12,1.11l0 0c0,0.62 -0.5,1.12 -1.12,1.12l-9.23 0c-0.61,0 -1.12,-0.5 -1.12,-1.12l0 0c0,-0.61 0.51,-1.11 1.12,-1.11z"/>
  <path class="fil16" d="M20.99 4.47l9.22 0c0.62,0 1.12,0.5 1.12,1.12l0 0c0,0.62 -0.5,1.12 -1.12,1.12l-9.22 0c-0.62,0 -1.12,-0.5 -1.12,-1.12l0 0c0,-0.62 0.5,-1.12 1.12,-1.12z"/>
  <path class="fil17" d="M10.31 4.72l2.45 0c0,0 -0.93,1.63 -2.45,0z"/>
  <path class="fil17" d="M10.46 5.41l1.6 -1.84c0,0 0.63,1.76 -1.6,1.84z"/>
  <path class="fil17" d="M46.36 11.76l2.45 0c0,0 -0.92,1.63 -2.45,0z"/>
  <path class="fil17" d="M46.51 12.45l1.6 -1.85c0,0 0.63,1.77 -1.6,1.85z"/>
  <polygon class="fil18" points="10.8,33.01 10.8,32.5 10.6,32.5 10.6,33.01 "/>
  <path class="fil15" d="M10.53 31.66l0 1.35 -1.17 0c-0.08,-0.49 -0.12,-1 -0.02,-1.29l1.19 -0.06z"/>
  <path class="fil15" d="M9.98 31.85l0 1.16 -1.19 0c-0.06,-0.42 -0.08,-0.84 0,-1.1l1.19 -0.06z"/>
  <g>
   <path class="fil18" d="M10.6 32.5c0,0 0.35,-0.45 0.64,0.13 0,0 -0.14,0.26 -0.18,0.13 -0.04,-0.12 -0.14,-0.31 -0.26,-0.2l-0.2 -0.06zm0 0l0 0 0 0z"/>
  </g>
  <path class="fil19" d="M10.56 31.65c0,0 0.53,0.51 0.27,0.95 -0.02,0.03 -0.05,0.05 -0.09,0.05 -0.03,0 -0.05,-0.01 -0.07,-0.03 -0.09,-0.09 -0.23,-0.31 -0.4,-0.85l0.29 -0.12z"/>
  <path class="fil4" d="M10.2 28.93c0,0 0.54,0.17 0.43,0.82 -0.1,0.65 -0.06,1.11 -0.06,1.11l0.14 0.83 -0.25 0.35c0,0 -0.43,-0.44 -0.58,-0.87 -0.14,-0.44 -0.13,-2.17 0.32,-2.24z"/>
  <path class="fil20" d="M10.19 28.93c0,0 0.54,0.16 0.44,0.81 -0.11,0.66 -0.07,1.12 -0.07,1.12l0.14 0.83 -0.25 0.34c0,0 -0.43,-0.43 -0.57,-0.87 -0.15,-0.44 -0.14,-2.17 0.31,-2.23z"/>
  <path class="fil19" d="M10.14 31.97c0,0 0.73,0.11 0.78,0.61 0,0 0,0.01 0,0.01 0,0.06 -0.05,0.1 -0.1,0.1 -0.01,0 -0.01,0 -0.02,0 -0.12,-0.02 -0.36,-0.11 -0.82,-0.44l0.16 -0.28z"/>
  <path class="fil19" d="M10.23 28.81c0,0 -0.12,0.21 -0.07,0.55 0,0 -0.7,-0.06 -0.68,-0.46 0,0 0.34,-0.08 0.42,-0.39l0.33 0.3z"/>
  <path class="fil4" d="M9.73 28.94c0,0 -0.44,-0.29 -0.73,0.56 -0.29,0.85 -0.17,2.41 -0.17,2.41 0,0 1.24,0.4 1.69,-0.16l0 -0.84c0,0 0.23,-0.96 -0.1,-1.79 0,0 -0.29,0.12 -0.69,-0.18z"/>
  <path class="fil4" d="M9.72 28.96c0,0 -0.44,-0.28 -0.73,0.56 -0.29,0.85 -0.18,2.41 -0.18,2.41 0,0 1.25,0.4 1.69,-0.16l0 -0.84c0,0 0.24,-0.96 -0.1,-1.79 0,0 -0.29,0.12 -0.68,-0.18z"/>
  <path class="fil21" d="M9.72 28.94c0,0 -0.44,-0.29 -0.73,0.56 -0.29,0.85 -0.18,2.41 -0.18,2.41 0,0 1.25,0.4 1.69,-0.16l0.05 -2.08c0,0 0.03,-0.47 -0.38,-0.69 0,0 -0.06,0.26 -0.45,-0.04z"/>
  <path class="fil4" d="M9.27 29.36c0,0 0.54,0.17 0.44,0.82 -0.1,0.65 -0.06,1.11 -0.06,1.11l0.69 0.7 -0.25 0.34c0,0 -0.98,-0.29 -1.13,-0.73 -0.15,-0.44 -0.13,-2.17 0.31,-2.24z"/>
  <path class="fil4" d="M9.24 29.38c0,0 0.54,0.17 0.44,0.82 -0.11,0.66 -0.07,1.11 -0.07,1.11l0.7 0.7 -0.25 0.34c0,0 -0.99,-0.29 -1.13,-0.73 -0.15,-0.44 -0.14,-2.17 0.31,-2.24z"/>
  <path class="fil20" d="M9.25 29.36c0,0 0.54,0.17 0.44,0.82 -0.1,0.65 -0.06,1.11 -0.06,1.11l0.69 0.7 -0.25 0.34c0,0 -0.98,-0.29 -1.13,-0.73 -0.15,-0.44 -0.13,-2.17 0.31,-2.24z"/>
  <path class="fil4" d="M9.89 28.53l0.33 0.31c-0.01,0.01 -0.01,0.02 -0.01,0.03 -0.05,0.01 -0.1,0.02 -0.15,0.02 0,0 0,0 0,0 -0.12,0 -0.23,-0.07 -0.33,-0.13 0.07,-0.06 0.13,-0.12 0.16,-0.23z"/>
  <ellipse class="fil22" cx="9.92" cy="28.48" rx="0.06" ry="0.1"/>
  <path class="fil15" d="M9.73 28.94c0,0 0.38,0.59 0.59,0.59 0.22,0 -0.15,-0.55 -0.15,-0.55l-0.01 0.15 -0.43 -0.19z"/>
  <path class="fil19" d="M10.63 28.3c0,-0.2 -0.1,-0.37 -0.26,-0.47l-0.6 0c-0.16,0.1 -0.26,0.27 -0.26,0.47 0,0.31 0.25,0.56 0.56,0.56 0.31,0 0.56,-0.25 0.56,-0.56z"/>
  <path class="fil23" d="M10.53 27.92c0,0 0.19,0.04 -0.15,0.16 -0.11,0.04 -0.21,0.12 -0.25,0.23 -0.05,0.1 -0.14,0.15 -0.24,0.15 -0.05,0 -0.09,-0.01 -0.13,-0.03l-0.11 -0.06 -0.19 -0.43 0.1 -0.11c0.22,-0.13 0.48,-0.16 0.82,0l0.15 0.09z"/>
  <path class="fil23" d="M9.51 28.04c0,0 -0.21,0.55 0.24,0.72l0 0c0.09,-0.04 0.14,-0.14 0.14,-0.23 0,-0.07 -0.03,-0.14 -0.08,-0.19l-0.3 -0.3z"/>
  <rect class="fil3" x="7.66" y="30" width="3.49" height="0.14"/>
  <path class="fil24" d="M13.82 35.45l-1.17 0c-0.05,0 -0.09,0.04 -0.09,0.09l0 0.33c0,0.05 0.04,0.08 0.09,0.08l1.17 0c0.05,0 0.08,-0.03 0.08,-0.08l0 -0.33c0,-0.05 -0.03,-0.09 -0.08,-0.09z"/>
  <polygon class="fil7" points="10.28,39.58 10.72,39.77 11.23,37.99 11.11,37.85 10.89,37.81 "/>
  <polygon class="fil25" points="10.28,39.58 10.72,39.77 11.23,37.99 11.11,37.85 10.89,37.81 "/>
  <polygon class="fil7" points="11.11,37.85 11.87,37.95 11.48,39.82 10.72,39.77 "/>
  <polygon class="fil26" points="11.11,37.85 11.87,37.95 11.48,39.82 10.72,39.77 "/>
  <path class="fil3" d="M11.31 37.89l0.01 0c0,-0.01 0.07,-0.65 0.5,-0.06l-0.27 -0.46c-0.29,0.06 -0.24,0.52 -0.24,0.52z"/>
  <rect class="fil27" x="13.24" y="31.07" width="0.84" height="1.23"/>
  <polygon class="fil28" points="14.08,32.3 13.24,32.3 13.24,31.07 14.08,31.07 "/>
  <polygon class="fil7" points="11.08,39.9 11.56,39.93 11.48,38.09 11.32,37.99 11.11,38.02 "/>
  <polygon class="fil28" points="11.08,39.9 11.56,39.93 11.48,38.09 11.32,37.99 11.11,38.02 "/>
  <polygon class="fil7" points="11.32,37.99 12.08,37.84 12.3,39.75 11.56,39.93 "/>
  <polygon class="fil7" points="16.45,34.88 16.56,34.88 16.78,36.79 16.3,36.76 "/>
  <polygon class="fil29" points="16.45,34.88 16.56,34.88 16.78,36.79 16.3,36.76 "/>
  <polygon class="fil30" points="16.49,34.85 16.62,36.77 15.46,36.9 15.32,35.03 "/>
  <path class="fil31" d="M14.34 38.9c0,0 0.15,-0.01 0.17,0.41 0,0 -0.02,0.23 0.04,0.34 0.06,0.11 0.02,0.43 -0.16,0.46 -0.06,0.02 -0.12,0.02 -0.18,0.02 -0.05,0 -0.11,0 -0.17,-0.02 -0.06,-0.01 -0.09,0 -0.03,-0.3l0.13 -0.89 0.2 -0.02z"/>
  <path class="fil32" d="M14.34 38.9c0,0 0.15,-0.01 0.17,0.41 0,0 -0.02,0.23 0.04,0.34 0.06,0.11 0.02,0.43 -0.16,0.46 -0.06,0.02 -0.12,0.02 -0.18,0.02 -0.05,0 -0.11,0 -0.17,-0.02 -0.06,-0.01 -0.09,0 -0.03,-0.3l0.13 -0.89 0.2 -0.02z"/>
  <path class="fil33" d="M14.9 32.61l-0.09 -0.12 -0.18 -0.66 0.11 0.02c0,0 0.01,0 0.01,0 0.38,0.01 0.77,1.5 1.18,2.39 0,0 0.4,0.23 0.06,0.42 -0.34,0.19 -0.3,-0.26 -0.3,-0.26 -0.09,-0.43 -0.19,-0.29 -0.52,-1.21 -0.11,-0.16 -0.27,-0.58 -0.27,-0.58z"/>
  <path class="fil33" d="M12.03 29.94l0.04 1.13 0.05 0.13c0,0 0.48,0.96 0.83,1.21 0.02,0.02 0.07,0.07 0.07,0.04l0.04 -0.42c-0.1,-0.25 -0.69,-0.95 -0.69,-1.06 0,-0.07 -0.11,-0.94 -0.11,-0.94 0,-0.15 0.17,-0.39 -0.04,-0.46 -0.02,0.01 -0.02,-0.19 -0.07,-0.23 -0.07,-0.07 -0.18,0.04 -0.2,0.06 -0.14,0.13 0.08,0.54 0.08,0.54z"/>
  <path class="fil33" d="M14.01 39.26c0,0 0.42,0.17 0.37,0.02 -0.03,-0.1 -0.02,-0.28 -0.01,-0.41 0.01,-0.08 0.02,-0.14 0.02,-0.14l-0.35 0.04c0.01,0.03 0.02,0.06 0.02,0.09 0.01,0.16 -0.05,0.4 -0.05,0.4z"/>
  <path class="fil33" d="M13.37 38.79c0.07,0.22 0.05,0.61 0.05,0.61 0,0 0.38,0.05 0.34,-0.05 -0.03,-0.07 -0.06,-0.4 -0.08,-0.6 -0.01,-0.08 -0.02,-0.14 -0.02,-0.14l-0.34 0.07c0.03,0.03 0.04,0.07 0.05,0.11l0 0z"/>
  <path class="fil4" d="M14.39 38.73l-0.35 0.04c0.01,0.03 0.02,0.06 0.02,0.09 0.05,0.03 0.11,0.04 0.17,0.04 0.05,0 0.1,-0.01 0.14,-0.03 0.01,-0.08 0.02,-0.14 0.02,-0.14z"/>
  <path class="fil34" d="M12.93 35.85l0.08 0.5c0.02,0.19 0.07,0.38 0.13,0.56 0.05,0.17 0.01,0.37 0.01,0.37 0,0 -0.05,0.78 0.04,0.98 0.08,0.19 0.07,0.47 0.07,0.47 0.2,0.11 0.48,-0.02 0.48,-0.02l0.02 -1.29c0,0 0.06,-0.34 0.04,-0.66 -0.03,-0.31 0.03,-0.96 0.03,-0.96 0.14,0.04 0.12,1.81 0.12,1.81l0 1.16c0.3,0.25 0.55,0 0.55,0 0.1,-0.29 0.06,-1.18 0.06,-1.18l0.04 -0.52c0,0 0.13,-0.65 0.22,-1.55 0.01,-0.14 0.02,-0.29 0.02,-0.43 0,-0.11 -0.01,-0.22 -0.01,-0.33 -0.01,-0.02 -0.01,-0.05 -0.01,-0.08 -0.01,-0.11 -0.03,-0.22 -0.06,-0.34 -0.01,-0.03 -0.03,-0.07 -0.04,-0.1l-1.31 0.06 -0.07 0 -0.19 0.01c-0.02,0.03 -0.04,0.06 -0.05,0.09 -0.03,0.05 -0.05,0.09 -0.07,0.14 -0.02,0.02 -0.03,0.05 -0.04,0.07 -0.25,0.63 -0.06,1.24 -0.06,1.24z"/>
  <path class="fil4" d="M14.37 34.36c0,0 0.05,0.57 0.46,0.4 -0.01,-0.02 -0.01,-0.05 -0.01,-0.08 -0.1,0.03 -0.36,0.07 -0.37,-0.32l-0.08 0z"/>
  <path class="fil31" d="M14.23 39.2c0.07,-0.01 0.16,-0.04 0.13,-0.16 0,0 0.12,-0.04 0.1,0.43 0,0 0.02,0.23 0.04,0.28 0.02,0.05 0,0.34 -0.25,0.32 0,0 -0.19,0.06 -0.24,-0.04 0,0 0.04,-0.56 -0.02,-0.66 -0.06,-0.09 0.02,-0.19 0.02,-0.19 0,0 0.09,0.05 0.15,0.03 0.03,0 0.05,-0.01 0.07,-0.01z"/>
  <path class="fil31" d="M13.93 39.99c0,0 0.12,0.21 -0.16,0.23 -0.28,0.03 -0.4,-0.12 -0.4,-0.12 0,0 -0.04,-0.06 0,-0.17 0.04,-0.11 -0.01,-0.3 -0.01,-0.3 0,0 -0.04,-0.23 0.05,-0.18 0.08,0.05 0.52,0.54 0.52,0.54z"/>
  <path class="fil32" d="M13.93 39.99c0,0 0.12,0.21 -0.16,0.23 -0.28,0.03 -0.4,-0.12 -0.4,-0.12 0,0 -0.04,-0.06 0,-0.17 0.04,-0.11 -0.01,-0.3 -0.01,-0.3 0,0 -0.04,-0.23 0.05,-0.18 0.08,0.05 0.52,0.54 0.52,0.54z"/>
  <path class="fil31" d="M13.61 39.25c0,0 0.15,-0.06 0.19,0.06 0.03,0.12 0.01,0.43 0.08,0.51 0.07,0.09 0.17,0.32 -0.12,0.31 -0.29,-0.02 -0.35,-0.11 -0.35,-0.11 0,0 0.01,-0.31 -0.03,-0.39 -0.03,-0.09 0,-0.22 0,-0.22 0,0 -0.01,-0.17 0.23,-0.16z"/>
  <path class="fil28" d="M16.15 35.03c0,-0.02 0.01,-0.03 0.03,-0.03 0.01,0 0.02,0.01 0.02,0.03 0,0.01 -0.01,0.02 -0.02,0.02 -0.02,0 -0.03,-0.01 -0.03,-0.02z"/>
  <path class="fil28" d="M15.64 35.09c0,-0.02 0.01,-0.03 0.02,-0.03 0.02,0 0.03,0.01 0.03,0.03 0,0.01 -0.01,0.02 -0.03,0.02 -0.01,0 -0.02,-0.01 -0.02,-0.02z"/>
  <path class="fil3" d="M15.66 35.09l0.01 0c0.08,-0.97 0.66,-0.35 0.5,-0.07l0.01 0.01c0,-0.02 0.05,-0.35 -0.07,-0.48 -0.04,-0.04 -0.09,-0.05 -0.16,-0.04 -0.3,0.05 -0.29,0.57 -0.29,0.58z"/>
  <path class="fil3" d="M11.53 37.97l0.01 -0.01c-0.01,0 -0.08,-0.66 0.36,-0.14l-0.31 -0.42c-0.26,0.15 -0.07,0.56 -0.06,0.57z"/>
  <path class="fil4" d="M13.55 32.17l0.32 0.09c0,0 0.52,0.07 0.31,-0.14 -0.07,-0.07 -0.1,-0.19 -0.12,-0.32 -0.08,0.13 -0.18,0.09 -0.18,0.09l-0.3 0 0 0c0.01,0.18 -0.03,0.28 -0.03,0.28z"/>
  <path class="fil4" d="M13.1 34.4c0.17,0.04 1.05,0.25 1.32,0.05 0.1,-0.07 0.22,-0.1 0.34,-0.11 -0.01,-0.03 -0.03,-0.07 -0.04,-0.1l-1.31 0.06 -0.07 0 -0.19 0.01c-0.02,0.03 -0.04,0.06 -0.05,0.09z"/>
  <g>
   <path class="fil33" d="M16.12 34.46c0,0 -0.18,0.3 -0.3,0l0.3 0zm0 0l0 0 0 0z"/>
  </g>
  <path class="fil4" d="M13.89 35.92c0,-0.07 0.01,-0.12 0.01,-0.12 0.13,0.04 0.12,1.81 0.12,1.81l0 1.16c0.09,0.07 0.17,0.1 0.24,0.11 -0.09,0.01 -0.19,-0.02 -0.3,-0.11l0 -1.16c0,0 0.01,-1.28 -0.07,-1.69z"/>
  <path class="fil35" d="M13 34.61c0.01,-0.02 0.02,-0.05 0.03,-0.07 0.02,-0.05 0.05,-0.09 0.07,-0.14 0.02,-0.03 0.04,-0.06 0.06,-0.09l0.18 -0.01 0.08 0 1.31 -0.06 0 0 -1.25 0.06 -0.08 0 -0.18 0.01c-0.02,0.03 -0.04,0.06 -0.06,0.09 -0.02,0.05 -0.05,0.09 -0.07,0.14 -0.01,0.02 -0.02,0.05 -0.03,0.07 -0.25,0.63 -0.06,1.24 -0.06,1.24l0.07 0.5c0.03,0.19 0.08,0.38 0.13,0.56 0.06,0.17 0.02,0.37 0.02,0.37 0,0 -0.05,0.78 0.04,0.98 0.08,0.19 0.07,0.47 0.07,0.47 0.05,0.03 0.1,0.04 0.15,0.04 -0.01,0 -0.02,0 -0.03,0 -0.07,0 -0.13,-0.01 -0.18,-0.04 -0.06,-0.03 0.01,-0.28 -0.08,-0.47 -0.08,-0.2 -0.03,-0.98 -0.03,-0.98 0,0 0.03,-0.2 -0.02,-0.37 -0.06,-0.18 -0.1,-0.37 -0.13,-0.56l-0.07 -0.5c0,0 -0.19,-0.61 0.06,-1.24z"/>
  <path class="fil36" d="M13.58 31.91c-0.17,0.08 -0.56,-0.09 -0.56,-0.09 -0.17,0.05 -0.05,0.62 -0.05,0.62l0.01 0.03c0.03,0.16 0.06,0.33 0.08,0.5 0.01,0.13 0.08,0.44 0.08,0.44 0.2,0.39 -0.07,0.96 -0.07,0.96 0,0 1.05,0.28 1.35,0.06 0.29,-0.22 0.72,-0.05 0.72,-0.05 -0.2,-0.18 -0.21,-1.31 -0.21,-1.31l0 -0.87c-0.03,-0.37 -0.23,-0.38 -0.23,-0.38 -0.25,-0.05 -0.64,0 -0.64,0 -0.08,0.13 -0.18,0.1 -0.18,0.1l-0.3 -0.01z"/>
  <path class="fil4" d="M13.8 30.43c0.02,-0.01 0.04,-0.01 0.06,-0.01 0.02,0 0.04,0 0.06,0.01 0.14,0.03 0.18,0.2 0.28,0.29 0.04,0.04 0.08,0.06 0.12,0.09 0.05,0.07 0.07,0.16 0.05,0.25 -0.01,0.09 -0.04,0.17 -0.06,0.26 -0.02,0.06 -0.03,0.13 -0.03,0.2 0,0.02 0,0.04 0,0.06 0,0 0,0 0,0 0,0.03 0.01,0.06 0.03,0.08 0.02,0.03 0.07,0.04 0.1,0.07 0.09,0.08 0.01,0.26 0.08,0.36 0.03,0.05 0.09,0.08 0.1,0.13 0.01,0.04 -0.01,0.08 -0.02,0.11 -0.05,0.1 -0.09,0.19 -0.17,0.26 -0.08,0.07 -0.17,0.1 -0.27,0.14 -0.02,0.01 -0.06,0.02 -0.08,0 -0.03,-0.03 -0.01,-0.07 0.01,-0.11 0.03,-0.05 0.05,-0.11 0.04,-0.16 -0.02,-0.06 -0.08,-0.1 -0.11,-0.15 -0.1,-0.12 -0.07,-0.29 -0.02,-0.44 0.02,-0.06 0.04,-0.13 0.03,-0.19 -0.01,-0.03 -0.03,-0.06 -0.04,-0.08 -0.04,-0.12 0.03,-0.25 0.01,-0.38 -0.01,-0.04 -0.03,-0.09 -0.05,-0.14l-0.1 -0.22c-0.02,-0.03 -0.03,-0.06 -0.05,-0.08 -0.03,-0.02 -0.07,-0.04 -0.11,-0.04 0,0 -0.01,0 -0.01,0 -0.09,0.01 -0.17,0.04 -0.23,0.11 -0.11,0.13 -0.11,0.32 -0.09,0.49l0.01 0.12c0.01,0.09 0.01,0.18 0.07,0.25 0.04,0.05 0.11,0.09 0.13,0.16 0.02,0.05 -0.01,0.11 0,0.17 0.03,0.09 0.13,0.12 0.19,0.19 0.02,0.03 0.04,0.07 0.04,0.11 0,0.04 -0.01,0.07 -0.03,0.1 -0.02,0.03 -0.05,0.07 -0.05,0.11 0,0.03 0.03,0.05 0.03,0.08 0,0.03 -0.02,0.06 -0.05,0.07 -0.02,0 -0.03,0 -0.05,0 -0.01,0 -0.02,0 -0.03,0l-0.31 -0.03c-0.01,0 -0.03,0 -0.05,-0.01 -0.02,-0.02 -0.03,-0.04 -0.03,-0.07 -0.01,-0.11 0.02,-0.22 -0.04,-0.32 -0.01,-0.03 -0.04,-0.05 -0.06,-0.08 -0.1,-0.16 0,-0.38 -0.05,-0.57 -0.03,-0.08 -0.09,-0.16 -0.11,-0.25 -0.02,-0.12 0.04,-0.23 0.07,-0.35 0.02,-0.12 0.01,-0.25 0.07,-0.36 0.05,-0.08 0.14,-0.13 0.23,-0.15 0.09,-0.03 0.17,-0.02 0.26,-0.03 0.08,-0.01 0.15,-0.04 0.23,-0.05z"/>
  <path class="fil27" d="M13.8 30.4c0.02,0 0.04,0 0.06,0 0.02,0 0.04,0 0.06,0 0.14,0.04 0.18,0.21 0.28,0.3 0.04,0.03 0.08,0.05 0.12,0.09 0.05,0.06 0.07,0.16 0.05,0.25 -0.01,0.08 -0.04,0.17 -0.06,0.25 -0.02,0.07 -0.03,0.14 -0.03,0.21 0,0.02 0,0.04 0,0.05 0,0 0,0 0,0.01 0,0.02 0.01,0.05 0.03,0.08 0.02,0.03 0.07,0.04 0.1,0.07 0.09,0.08 0.01,0.25 0.08,0.36 0.03,0.04 0.09,0.07 0.1,0.13 0.01,0.04 -0.01,0.07 -0.02,0.11 -0.05,0.09 -0.09,0.19 -0.17,0.26 0,0 -0.36,0.15 -1.12,0.08 -0.01,0 -0.03,-0.01 -0.05,-0.02 -0.02,-0.01 -0.03,-0.04 -0.03,-0.06 -0.01,-0.11 0.02,-0.23 -0.04,-0.32 -0.01,-0.03 -0.04,-0.06 -0.06,-0.09 -0.1,-0.16 0,-0.38 -0.05,-0.56 -0.03,-0.09 -0.09,-0.16 -0.11,-0.25 -0.02,-0.12 0.04,-0.24 0.07,-0.35 0.02,-0.12 0.01,-0.26 0.07,-0.36 0.05,-0.08 0.14,-0.14 0.23,-0.16 0.09,-0.02 0.17,-0.01 0.26,-0.02 0.08,-0.01 0.15,-0.04 0.23,-0.06z"/>
 </g>
</svg>
