<svg xmlns="http://www.w3.org/2000/svg" width="1000" height="729" viewBox="0 0 55.88 40.75" shape-rendering="geometricPrecision" text-rendering="geometricPrecision" image-rendering="optimizeQuality" fill-rule="evenodd" clip-rule="evenodd">
  <defs>
    <style>
      .str0{stroke:#535461;stroke-width:.1;stroke-miterlimit:22.9256}.fil11{fill:none}.fil15{fill:#333}.fil18{fill:#381e1d}.fil12{fill:#4db6ac}.fil3{fill:#535461}.fil31{fill:#5c3d53}.fil13{fill:#5d291b}.fil27{fill:#774e55}.fil23{fill:#ccc}.fil5{fill:#e0e0e0}.fil20{fill:#e6e6e6}.fil7{fill:#ec7336}.fil33{fill:#f8bdc5}.fil19{fill:#fcd6c5}.fil1,.fil2{fill:#ec7336;fill-opacity:.019608}.fil2{fill-opacity:.039216}.fil32,.fil4{fill:#000;fill-opacity:.05098}.fil4{fill-opacity:.101961}.fil10{fill:#fff;fill-opacity:.14902}.fil0,.fil28{fill-opacity:.2}.fil28{fill:#000}.fil0{fill:#ec7336}.fil16,.fil17{fill-opacity:.301961}.fil17{fill:#030b44}.fil16{fill:#e0e0e0}.fil9{fill:#ec7336;fill-opacity:.701961}
    </style>
  </defs>
  <g id="Ebene_x0020_1">
    <path class="fil0" d="M41.66 19.24c0-2.25-.69-4.29-1.82-5.81a5.45 5.45 0 10-10.36-2.37c0 .82.18 1.63.54 2.37-1.13 1.52-1.83 3.56-1.83 5.81 0 2.24.7 4.29 1.83 5.81a5.45 5.45 0 109.82 0c1.13-1.52 1.82-3.57 1.82-5.81z"/>
    <path class="fil1" d="M41.66 19.24c0-2.25-.69-4.29-1.82-5.81a5.45 5.45 0 10-10.36-2.37c0 .82.18 1.63.54 2.37-1.13 1.52-1.83 3.56-1.83 5.81 0 2.24.7 4.29 1.83 5.81a5.45 5.45 0 109.82 0c1.13-1.52 1.82-3.57 1.82-5.81z"/>
    <path class="fil0" d="M41.98 19.24c0-2.25-.69-4.29-1.82-5.81a5.45 5.45 0 10-10.36-2.37c0 .82.18 1.63.54 2.37-1.13 1.52-1.83 3.56-1.83 5.81 0 2.24.7 4.29 1.83 5.81a5.45 5.45 0 109.82 0c1.13-1.52 1.82-3.57 1.82-5.81z"/>
    <path class="fil0" d="M35.89 39.92h-1.28l.64-21.16z"/>
    <path class="fil0" d="M35.41 24.04l4.17-1.76-4.17 2.25zm-.38 1.93l-1.23-1.44 1.2 2.24zm16.41.53c0-1.45-.45-2.77-1.18-3.76.23-.47.35-.99.35-1.52 0-1.95-1.58-3.53-3.52-3.53a3.52 3.52 0 00-3.52 3.53c0 .53.11 1.05.34 1.52-.73.99-1.17 2.31-1.17 3.76 0 1.45.44 2.77 1.17 3.75-.23.48-.34 1-.34 1.53 0 1.95 1.57 3.52 3.52 3.52a3.519 3.519 0 003.17-5.05c.73-.98 1.18-2.3 1.18-3.75z"/>
    <path class="fil1" d="M51.44 26.5c0-1.45-.45-2.77-1.18-3.76.23-.47.35-.99.35-1.52 0-1.95-1.58-3.53-3.52-3.53a3.52 3.52 0 00-3.52 3.53c0 .53.11 1.05.34 1.52-.73.99-1.17 2.31-1.17 3.76 0 1.45.44 2.77 1.17 3.75-.23.48-.34 1-.34 1.53 0 1.95 1.57 3.52 3.52 3.52a3.519 3.519 0 003.17-5.05c.73-.98 1.18-2.3 1.18-3.75z"/>
    <path class="fil0" d="M51.65 26.5c0-1.45-.45-2.77-1.18-3.76.23-.47.35-.99.35-1.52 0-1.95-1.58-3.53-3.52-3.53a3.53 3.53 0 00-3.53 3.53c0 .53.12 1.05.35 1.52-.73.99-1.18 2.31-1.18 3.76 0 1.45.45 2.77 1.18 3.75a3.52 3.52 0 003.18 5.05 3.519 3.519 0 003.17-5.05c.73-.98 1.18-2.3 1.18-3.75z"/>
    <path class="fil2" d="M47.71 39.87h-.83l.42-13.68z"/>
    <path class="fil0" d="M47.4 29.61l2.69-1.14-2.69 1.45z"/>
    <path class="fil2" d="M47.15 30.85l-.79-.93.78 1.45z"/>
    <path class="fil3" d="M38.13 34.72h.15v2.23h-.15zm-.15 2.52h.37v2.6h-.37zm7.87 0h.37v2.6h-.37z"/>
    <path class="fil4" d="M37.98 39.84h.37v-2.6h-.37zm7.87 0h.38v-2.6h-.38z"/>
    <path class="fil3" d="M46 34.72h.15v2.23H46z"/>
    <path class="fil4" d="M38.13 36.95h.15v-2.23h-.15zm8.02-2.23H46v2.23h.15z"/>
    <path class="fil3" d="M37.46 34.57h9.36v.45h-9.36zm0 .74h9.36v.45h-9.36zm0 .75h9.36v.45h-9.36zm0 .81h9.36v.82h-9.36z"/>
    <path class="fil5" d="M26.06 7.8h3.34v6.46h-3.34z"/>
    <path fill="#eee" d="M32.86 17.71v22.06h-30V17.71l2.52-1.55 2.38-1.46L17.9 8.47z"/>
    <path class="fil4" d="M29.07 39.77v-23.2l-.44.28v22.92z"/>
    <path class="fil7" d="M14.52 29.48h6.68v10.25h-6.68z"/>
    <circle class="fil3" cx="20.2" cy="34.61" r=".3"/>
    <path class="fil4" d="M26.06 8.25h3.35v-.38h-3.35z"/>
    <path class="fil5" d="M25.47 7.43h4.46v.74h-4.46z"/>
    <path class="fil4" d="M2.86 23.51h30v-.6h-30z"/>
    <path fill="#fff" d="M2.86 22.84h30v.59h-30z"/>
    <path class="fil4" d="M28.26 14.26h.81V7.43h-.81zm-.6.04h.22V7.47h-.22zm4.46 2.52v22.95h-2.38V16.16zM7.09 14.7v25.07H4.72V16.16zM4.05 39.77v-23.2l-.45.28v22.92z"/>
    <path class="fil4" d="M17.9 6.02L0 19.01l1.19 1.93L17.9 9.58l16.7 11.36 1.19-1.93z"/>
    <path class="fil7" d="M17.9 5.87L0 18.86l1.19 1.94L17.9 9.43 34.6 20.8l1.19-1.94z"/>
    <path class="fil9" d="M5.35 33.2h6.23v-6.24H5.35z"/>
    <path class="fil4" d="M5.09 33.75h6.68v-.74H5.09z"/>
    <path class="fil3" d="M5.09 32.86h6.68v.74H5.09z"/>
    <path class="fil10" d="M7.95 27l-2.57 3.54v-1.8L6.83 27zm2.21 0l-4.78 5.02v-.89L8.95 27z"/>
    <path class="fil11 str0" d="M5.35 30.08h6.23M5.38 27h6.24m-.07 0v6.23m-6.17-6.31v6.24"/>
    <path class="fil9" d="M30.37 26.96h-6.24v6.24h6.24z"/>
    <path class="fil4" d="M30.63 33.01h-6.68v.74h6.68z"/>
    <path class="fil3" d="M23.95 32.86h6.68v.74h-6.68z"/>
    <path class="fil10" d="M27.76 27l2.57 3.54v-1.8L28.89 27zm-2.2 0l4.77 5.02v-.89L26.77 27z"/>
    <path class="fil11 str0" d="M30.37 30.08h-6.24m6.2-3.08H24.1m.07 0v6.23m6.16-6.31v6.24"/>
    <path class="fil9" d="M20.94 14.26H14.7v6.24h6.24z"/>
    <path class="fil4" d="M21.2 20.31h-6.68v.75h6.68z"/>
    <path class="fil3" d="M14.52 20.16h6.68v.74h-6.68z"/>
    <path class="fil10" d="M18.33 14.3l2.57 3.55v-1.81l-1.44-1.74zm-2.21 0l4.78 5.02v-.89l-3.56-4.13z"/>
    <path class="fil11 str0" d="M20.94 17.38H14.7m6.2-3.08h-6.23m3.15-.04v6.24m-3.08-6.2v6.24m6.16-6.32v6.24"/>
    <path class="fil12" d="M35.16 30.19v-.06c0-.94-.29-1.86-.84-2.63a2.524 2.524 0 00-2.28-3.62c-1.39 0-2.52 1.13-2.52 2.52 0 .38.08.76.25 1.1-.55.79-.85 1.73-.85 2.69s.3 1.9.85 2.69c-.17.34-.25.72-.25 1.1 0 1.39 1.13 2.52 2.52 2.52a2.524 2.524 0 002.28-3.62c.55-.77.84-1.69.84-2.63v-.06z"/>
    <path class="fil4" d="M35.16 30.19v-.06c0-.94-.29-1.86-.84-2.63a2.524 2.524 0 00-2.28-3.62c-1.39 0-2.52 1.13-2.52 2.52 0 .38.08.76.25 1.1-.55.79-.85 1.73-.85 2.69s.3 1.9.85 2.69c-.17.34-.25.72-.25 1.1 0 1.39 1.13 2.52 2.52 2.52a2.524 2.524 0 002.28-3.62c.55-.77.84-1.69.84-2.63v-.06z"/>
    <path class="fil12" d="M35.31 30.19v-.06c0-.94-.29-1.86-.84-2.63a2.524 2.524 0 00-2.28-3.62c-1.39 0-2.52 1.13-2.52 2.52 0 .38.08.76.25 1.1-.55.79-.85 1.73-.85 2.69s.3 1.9.85 2.69c-.17.34-.25.72-.25 1.1 0 1.39 1.13 2.52 2.52 2.52a2.524 2.524 0 002.28-3.62c.55-.77.84-1.69.84-2.63v-.06z"/>
    <path class="fil13" d="M32.49 39.77h-.6l.3-9.8z"/>
    <path class="fil13" d="M32.27 32.42l1.93-.82-1.93 1.04zm-.18.89l-.57-.67.56 1.04z"/>
    <path class="fil12" d="M55.73 30.19v-.06c0-.94-.29-1.86-.84-2.63a2.524 2.524 0 00-2.28-3.62c-1.39 0-2.52 1.13-2.52 2.52 0 .38.08.76.25 1.1-.55.79-.85 1.73-.85 2.69s.3 1.9.85 2.69c-.17.34-.25.72-.25 1.1 0 1.39 1.13 2.52 2.52 2.52a2.524 2.524 0 002.28-3.62c.55-.77.84-1.69.84-2.63v-.06z"/>
    <path class="fil4" d="M55.73 30.19v-.06c0-.94-.29-1.86-.84-2.63a2.524 2.524 0 00-2.28-3.62c-1.39 0-2.52 1.13-2.52 2.52 0 .38.08.76.25 1.1-.55.79-.85 1.73-.85 2.69s.3 1.9.85 2.69c-.17.34-.25.72-.25 1.1 0 1.39 1.13 2.52 2.52 2.52a2.524 2.524 0 002.28-3.62c.55-.77.84-1.69.84-2.63v-.06z"/>
    <path class="fil12" d="M55.88 30.19v-.06c0-.94-.3-1.86-.84-2.63a2.524 2.524 0 00-2.28-3.62c-1.39 0-2.52 1.13-2.52 2.52 0 .38.08.76.25 1.1-.55.79-.85 1.73-.85 2.69s.3 1.9.85 2.69c-.17.34-.25.72-.25 1.1 0 1.39 1.13 2.52 2.52 2.52a2.524 2.524 0 002.28-3.62c.54-.77.84-1.69.84-2.63v-.06z"/>
    <path class="fil13" d="M53.06 39.77h-.6l.3-9.8z"/>
    <path class="fil13" d="M52.84 32.42l1.93-.82-1.93 1.04zm-.18.89l-.57-.67.56 1.04z"/>
    <circle cx="54.25" cy="30.78" r=".37" fill="#f55f44"/>
    <path class="fil12" d="M8.35 37.94v-.1c0-.74-.59-1.34-1.33-1.34-.24 0-.47.07-.68.19-.23-.44-.69-.71-1.18-.71-.42 0-.82.2-1.07.55-.09-.02-.18-.03-.27-.03-.73 0-1.33.6-1.33 1.34 0 .31.11.62.31.86-.06.15-.09.31-.09.48a1.338 1.338 0 001.89 1.21c.18.08.37.12.56.12.33 0 .65-.12.89-.34a1.337 1.337 0 001.34.26c.14.05.29.08.44.08.74 0 1.34-.6 1.34-1.34 0-.54-.32-1.02-.82-1.23z"/>
    <path class="fil4" d="M8.35 37.94v-.1c0-.74-.59-1.34-1.33-1.34-.24 0-.47.07-.68.19-.23-.44-.69-.71-1.18-.71-.42 0-.82.2-1.07.55-.09-.02-.18-.03-.27-.03-.73 0-1.33.6-1.33 1.34 0 .31.11.62.31.86-.06.15-.09.31-.09.48a1.338 1.338 0 001.89 1.21c.18.08.37.12.56.12.33 0 .65-.12.89-.34a1.337 1.337 0 001.34.26c.14.05.29.08.44.08.74 0 1.34-.6 1.34-1.34 0-.54-.32-1.02-.82-1.23z"/>
    <path class="fil12" d="M8.5 37.94v-.1c0-.74-.6-1.34-1.33-1.34-.24 0-.48.07-.68.19a1.333 1.333 0 00-2.26-.16 1.09 1.09 0 00-.26-.03c-.74 0-1.33.6-1.33 1.34 0 .31.11.62.31.86-.06.15-.09.31-.09.48a1.336 1.336 0 001.89 1.21c.18.08.37.12.56.12.33 0 .65-.12.89-.34a1.318 1.318 0 001.34.26c.14.05.29.08.44.08.74 0 1.34-.6 1.34-1.34 0-.54-.32-1.02-.82-1.23z"/>
    <path class="fil15" d="M1.15 39.9h51.31v.85H1.15z"/>
    <path class="fil16" d="M20.99 0h9.22c.62 0 1.12.5 1.12 1.12 0 .62-.5 1.12-1.12 1.12h-9.22c-.62 0-1.12-.5-1.12-1.12 0-.62.5-1.12 1.12-1.12zm-2.8 2.24h9.23c.62 0 1.12.5 1.12 1.11 0 .62-.5 1.12-1.12 1.12h-9.23c-.61 0-1.12-.5-1.12-1.12 0-.61.51-1.11 1.12-1.11z"/>
    <path class="fil16" d="M20.99 4.47h9.22c.62 0 1.12.5 1.12 1.12 0 .62-.5 1.12-1.12 1.12h-9.22c-.62 0-1.12-.5-1.12-1.12 0-.62.5-1.12 1.12-1.12z"/>
    <path class="fil17" d="M10.31 4.72h2.45s-.93 1.63-2.45 0z"/>
    <path class="fil17" d="M10.46 5.41l1.6-1.84s.63 1.76-1.6 1.84zm35.9 6.35h2.45s-.92 1.63-2.45 0z"/>
    <path class="fil17" d="M46.51 12.45l1.6-1.85s.63 1.77-1.6 1.85z"/>
    <path class="fil18" d="M10.8 33.01v-.51h-.2v.51z"/>
    <path class="fil15" d="M10.53 31.66v1.35H9.36c-.08-.49-.12-1-.02-1.29l1.19-.06z"/>
    <path class="fil15" d="M9.98 31.85v1.16H8.79c-.06-.42-.08-.84 0-1.1l1.19-.06z"/>
    <path class="fil18" d="M10.6 32.5s.35-.45.64.13c0 0-.14.26-.18.13-.04-.12-.14-.31-.26-.2l-.2-.06zm0 0z"/>
    <path class="fil19" d="M10.56 31.65s.53.51.27.95c-.02.03-.05.05-.09.05a.09.09 0 01-.07-.03c-.09-.09-.23-.31-.4-.85l.29-.12z"/>
    <path class="fil4" d="M10.2 28.93s.54.17.43.82c-.1.65-.06 1.11-.06 1.11l.14.83-.25.35s-.43-.44-.58-.87c-.14-.44-.13-2.17.32-2.24z"/>
    <path class="fil20" d="M10.19 28.93s.54.16.44.81c-.11.66-.07 1.12-.07 1.12l.14.83-.25.34s-.43-.43-.57-.87c-.15-.44-.14-2.17.31-2.23z"/>
    <path class="fil19" d="M10.14 31.97s.73.11.78.61v.01a.1.1 0 01-.1.1h-.02c-.12-.02-.36-.11-.82-.44l.16-.28zm.09-3.16s-.12.21-.07.55c0 0-.7-.06-.68-.46 0 0 .34-.08.42-.39l.33.3z"/>
    <path class="fil4" d="M9.73 28.94s-.44-.29-.73.56c-.29.85-.17 2.41-.17 2.41s1.24.4 1.69-.16v-.84s.23-.96-.1-1.79c0 0-.29.12-.69-.18z"/>
    <path class="fil4" d="M9.72 28.96s-.44-.28-.73.56c-.29.85-.18 2.41-.18 2.41s1.25.4 1.69-.16v-.84s.24-.96-.1-1.79c0 0-.29.12-.68-.18z"/>
    <path d="M9.72 28.94s-.44-.29-.73.56c-.29.85-.18 2.41-.18 2.41s1.25.4 1.69-.16l.05-2.08s.03-.47-.38-.69c0 0-.06.26-.45-.04z" fill="#999"/>
    <path class="fil4" d="M9.27 29.36s.54.17.44.82c-.1.65-.06 1.11-.06 1.11l.69.7-.25.34s-.98-.29-1.13-.73c-.15-.44-.13-2.17.31-2.24z"/>
    <path class="fil4" d="M9.24 29.38s.54.17.44.82c-.11.66-.07 1.11-.07 1.11l.7.7-.25.34s-.99-.29-1.13-.73c-.15-.44-.14-2.17.31-2.24z"/>
    <path class="fil20" d="M9.25 29.36s.54.17.44.82c-.1.65-.06 1.11-.06 1.11l.69.7-.25.34s-.98-.29-1.13-.73c-.15-.44-.13-2.17.31-2.24z"/>
    <path class="fil4" d="M9.89 28.53l.33.31c-.01.01-.01.02-.01.03-.05.01-.1.02-.15.02-.12 0-.23-.07-.33-.13.07-.06.13-.12.16-.23z"/>
    <ellipse cx="9.92" cy="28.48" rx=".06" ry=".1" fill="#fda57d"/>
    <path class="fil15" d="M9.73 28.94s.38.59.59.59c.22 0-.15-.55-.15-.55l-.01.15-.43-.19z"/>
    <path class="fil19" d="M10.63 28.3c0-.2-.1-.37-.26-.47h-.6a.56.56 0 10.86.47z"/>
    <path class="fil23" d="M10.53 27.92s.19.04-.15.16c-.11.04-.21.12-.25.23a.26.26 0 01-.24.15c-.05 0-.09-.01-.13-.03l-.11-.06-.19-.43.1-.11c.22-.13.48-.16.82 0l.15.09z"/>
    <path class="fil23" d="M9.51 28.04s-.21.55.24.72c.09-.04.14-.14.14-.23 0-.07-.03-.14-.08-.19l-.3-.3z"/>
    <path class="fil3" d="M7.66 30h3.49v.14H7.66z"/>
    <path d="M13.82 35.45h-1.17a.09.09 0 00-.09.09v.33c0 .05.04.08.09.08h1.17c.05 0 .08-.03.08-.08v-.33c0-.05-.03-.09-.08-.09z" fill="#ec7336" fill-opacity=".102"/>
    <path class="fil7" d="M10.28 39.58l.44.19.51-1.78-.12-.14-.22-.04z"/>
    <path fill="#fff" fill-opacity=".2" d="M10.28 39.58l.44.19.51-1.78-.12-.14-.22-.04z"/>
    <path class="fil7" d="M11.11 37.85l.76.1-.39 1.87-.76-.05z"/>
    <path fill="#fff" fill-opacity=".071" d="M11.11 37.85l.76.1-.39 1.87-.76-.05z"/>
    <path class="fil3" d="M11.31 37.89h.01c0-.01.07-.65.5-.06l-.27-.46c-.29.06-.24.52-.24.52z"/>
    <path class="fil27" d="M13.24 31.07h.84v1.23h-.84z"/>
    <path class="fil28" d="M14.08 32.3h-.84v-1.23h.84z"/>
    <path class="fil7" d="M11.08 39.9l.48.03-.08-1.84-.16-.1-.21.03z"/>
    <path class="fil28" d="M11.08 39.9l.48.03-.08-1.84-.16-.1-.21.03z"/>
    <path class="fil7" d="M11.32 37.99l.76-.15.22 1.91-.74.18zm5.13-3.11h.11l.22 1.91-.48-.03z"/>
    <path fill="#fff" fill-opacity=".2" d="M16.45 34.88h.11l.22 1.91-.48-.03z"/>
    <path fill="#fff" d="M16.49 34.85l.13 1.92-1.16.13-.14-1.87z"/>
    <path class="fil31" d="M14.34 38.9s.15-.01.17.41c0 0-.02.23.04.34.06.11.02.43-.16.46-.06.02-.12.02-.18.02-.05 0-.11 0-.17-.02-.06-.01-.09 0-.03-.3l.13-.89.2-.02z"/>
    <path class="fil32" d="M14.34 38.9s.15-.01.17.41c0 0-.02.23.04.34.06.11.02.43-.16.46-.06.02-.12.02-.18.02-.05 0-.11 0-.17-.02-.06-.01-.09 0-.03-.3l.13-.89.2-.02z"/>
    <path class="fil33" d="M14.9 32.61l-.09-.12-.18-.66.11.02h.01c.38.01.77 1.5 1.18 2.39 0 0 .4.23.06.42-.34.19-.3-.26-.3-.26-.09-.43-.19-.29-.52-1.21-.11-.16-.27-.58-.27-.58zm-2.87-2.67l.04 1.13.05.13s.48.96.83 1.21c.02.02.07.07.07.04l.04-.42c-.1-.25-.69-.95-.69-1.06 0-.07-.11-.94-.11-.94 0-.15.17-.39-.04-.46-.02.01-.02-.19-.07-.23-.07-.07-.18.04-.2.06-.14.13.08.54.08.54zm1.98 9.32s.42.17.37.02c-.03-.1-.02-.28-.01-.41.01-.08.02-.14.02-.14l-.35.04c.01.03.02.06.02.09.01.16-.05.4-.05.4zm-.64-.47c.07.22.05.61.05.61s.38.05.34-.05c-.03-.07-.06-.4-.08-.6-.01-.08-.02-.14-.02-.14l-.34.07c.03.03.04.07.05.11z"/>
    <path class="fil4" d="M14.39 38.73l-.35.04c.01.03.02.06.02.09.05.03.11.04.17.04.05 0 .1-.01.14-.03.01-.08.02-.14.02-.14z"/>
    <path d="M12.93 35.85l.08.5c.02.19.07.38.13.56.05.17.01.37.01.37s-.05.78.04.98c.08.19.07.47.07.47.2.11.48-.02.48-.02l.02-1.29s.06-.34.04-.66c-.03-.31.03-.96.03-.96.14.04.12 1.81.12 1.81v1.16c.3.25.55 0 .55 0 .1-.29.06-1.18.06-1.18l.04-.52s.13-.65.22-1.55c.01-.14.02-.29.02-.43 0-.11-.01-.22-.01-.33-.01-.02-.01-.05-.01-.08-.01-.11-.03-.22-.06-.34-.01-.03-.03-.07-.04-.1l-1.31.06h-.07l-.19.01c-.02.03-.04.06-.05.09-.03.05-.05.09-.07.14-.02.02-.03.05-.04.07-.25.63-.06 1.24-.06 1.24z" fill="#5e52ad"/>
    <path class="fil4" d="M14.37 34.36s.05.57.46.4c-.01-.02-.01-.05-.01-.08-.1.03-.36.07-.37-.32h-.08z"/>
    <path class="fil31" d="M14.23 39.2c.07-.01.16-.04.13-.16 0 0 .12-.04.1.43 0 0 .02.23.04.28.02.05 0 .34-.25.32 0 0-.19.06-.24-.04 0 0 .04-.56-.02-.66-.06-.09.02-.19.02-.19s.09.05.15.03c.03 0 .05-.01.07-.01zm-.3.79s.12.21-.16.23c-.28.03-.4-.12-.4-.12s-.04-.06 0-.17c.04-.11-.01-.3-.01-.3s-.04-.23.05-.18c.08.05.52.54.52.54z"/>
    <path class="fil32" d="M13.93 39.99s.12.21-.16.23c-.28.03-.4-.12-.4-.12s-.04-.06 0-.17c.04-.11-.01-.3-.01-.3s-.04-.23.05-.18c.08.05.52.54.52.54z"/>
    <path class="fil31" d="M13.61 39.25s.15-.06.19.06c.03.12.01.43.08.51.07.09.17.32-.12.31-.29-.02-.35-.11-.35-.11s.01-.31-.03-.39c-.03-.09 0-.22 0-.22s-.01-.17.23-.16z"/>
    <path class="fil28" d="M16.15 35.03c0-.02.01-.03.03-.03.01 0 .02.01.02.03 0 .01-.01.02-.02.02-.02 0-.03-.01-.03-.02zm-.51.06c0-.02.01-.03.02-.03.02 0 .03.01.03.03 0 .01-.01.02-.03.02-.01 0-.02-.01-.02-.02z"/>
    <path class="fil3" d="M15.66 35.09h.01c.08-.97.66-.35.5-.07l.01.01c0-.02.05-.35-.07-.48-.04-.04-.09-.05-.16-.04-.3.05-.29.57-.29.58zm-4.13 2.88l.01-.01c-.01 0-.08-.66.36-.14l-.31-.42c-.26.15-.07.56-.06.57z"/>
    <path class="fil4" d="M13.55 32.17l.32.09s.52.07.31-.14c-.07-.07-.1-.19-.12-.32-.08.13-.18.09-.18.09h-.3c.01.18-.03.28-.03.28zm-.45 2.23c.17.04 1.05.25 1.32.05.1-.07.22-.1.34-.11-.01-.03-.03-.07-.04-.1l-1.31.06h-.07l-.19.01c-.02.03-.04.06-.05.09z"/>
    <path class="fil33" d="M16.12 34.46s-.18.3-.3 0h.3zm0 0z"/>
    <path class="fil4" d="M13.89 35.92c0-.07.01-.12.01-.12.13.04.12 1.81.12 1.81v1.16c.09.07.17.1.24.11-.09.01-.19-.02-.3-.11v-1.16s.01-1.28-.07-1.69z"/>
    <path d="M13 34.61c.01-.02.02-.05.03-.07.02-.05.05-.09.07-.14l.06-.09.18-.01h.08l1.31-.06-1.25.06h-.08l-.18.01-.06.09c-.02.05-.05.09-.07.14-.01.02-.02.05-.03.07-.25.63-.06 1.24-.06 1.24l.07.5c.03.19.08.38.13.56.06.17.02.37.02.37s-.05.78.04.98c.08.19.07.47.07.47.05.03.1.04.15.04h-.03c-.07 0-.13-.01-.18-.04-.06-.03.01-.28-.08-.47-.08-.2-.03-.98-.03-.98s.03-.2-.02-.37c-.06-.18-.1-.37-.13-.56l-.07-.5s-.19-.61.06-1.24z" fill-opacity=".012"/>
    <path d="M13.58 31.91c-.17.08-.56-.09-.56-.09-.17.05-.05.62-.05.62l.01.03c.03.16.06.33.08.5.01.13.08.44.08.44.2.39-.07.96-.07.96s1.05.28 1.35.06c.29-.22.72-.05.72-.05-.2-.18-.21-1.31-.21-1.31v-.87c-.03-.37-.23-.38-.23-.38-.25-.05-.64 0-.64 0-.08.13-.18.1-.18.1l-.3-.01z" fill="#289489"/>
    <path class="fil4" d="M13.8 30.43c.02-.01.04-.01.06-.01.02 0 .04 0 .06.01.14.03.18.2.28.29.04.04.08.06.12.09.05.07.07.16.05.25-.01.09-.04.17-.06.26-.02.06-.03.13-.03.2v.06c0 .03.01.06.03.08.02.03.07.04.1.07.09.08.01.26.08.36.03.05.09.08.1.13.01.04-.01.08-.02.11-.05.1-.09.19-.17.26-.08.07-.17.1-.27.14-.02.01-.06.02-.08 0-.03-.03-.01-.07.01-.11.03-.05.05-.11.04-.16-.02-.06-.08-.1-.11-.15-.1-.12-.07-.29-.02-.44.02-.06.04-.13.03-.19-.01-.03-.03-.06-.04-.08-.04-.12.03-.25.01-.38-.01-.04-.03-.09-.05-.14l-.1-.22c-.02-.03-.03-.06-.05-.08a.21.21 0 00-.11-.04h-.01c-.09.01-.17.04-.23.11-.11.13-.11.32-.09.49l.01.12c.01.09.01.18.07.25.04.05.11.09.13.16.02.05-.01.11 0 .17.03.09.13.12.19.19.02.03.04.07.04.11 0 .04-.01.07-.03.1-.02.03-.05.07-.05.11 0 .03.03.05.03.08s-.02.06-.05.07h-.08l-.31-.03c-.01 0-.03 0-.05-.01a.09.09 0 01-.03-.07c-.01-.11.02-.22-.04-.32-.01-.03-.04-.05-.06-.08-.1-.16 0-.38-.05-.57-.03-.08-.09-.16-.11-.25-.02-.12.04-.23.07-.35.02-.12.01-.25.07-.36.05-.08.14-.13.23-.15.09-.03.17-.02.26-.03.08-.01.15-.04.23-.05z"/>
    <path class="fil27" d="M13.8 30.4h.12c.14.04.18.21.28.3.04.03.08.05.12.09.05.06.07.16.05.25-.01.08-.04.17-.06.25-.02.07-.03.14-.03.21v.06c0 .02.01.05.03.08.02.03.07.04.1.07.09.08.01.25.08.36.03.04.09.07.1.13.01.04-.01.07-.02.11-.05.09-.09.19-.17.26 0 0-.36.15-1.12.08-.01 0-.03-.01-.05-.02-.02-.01-.03-.04-.03-.06-.01-.11.02-.23-.04-.32-.01-.03-.04-.06-.06-.09-.1-.16 0-.38-.05-.56-.03-.09-.09-.16-.11-.25-.02-.12.04-.24.07-.35.02-.12.01-.26.07-.36.05-.08.14-.14.23-.16.09-.02.17-.01.26-.02.08-.01.15-.04.23-.06z"/>
  </g>
</svg>